%TF.GenerationSoftware,KiCad,Pcbnew,8.0.5*%
%TF.CreationDate,2024-10-10T20:21:21+02:00*%
%TF.ProjectId,Glasbaustein,476c6173-6261-4757-9374-65696e2e6b69,rev?*%
%TF.SameCoordinates,Original*%
%TF.FileFunction,Legend,Top*%
%TF.FilePolarity,Positive*%
%FSLAX46Y46*%
G04 Gerber Fmt 4.6, Leading zero omitted, Abs format (unit mm)*
G04 Created by KiCad (PCBNEW 8.0.5) date 2024-10-10 20:21:21*
%MOMM*%
%LPD*%
G01*
G04 APERTURE LIST*
%ADD10C,0.250000*%
%ADD11C,0.150000*%
%ADD12C,0.120000*%
%ADD13C,0.152400*%
G04 APERTURE END LIST*
D10*
X72712092Y-103242238D02*
X72712092Y-104670809D01*
X72712092Y-104670809D02*
X72616853Y-104956523D01*
X72616853Y-104956523D02*
X72426377Y-105147000D01*
X72426377Y-105147000D02*
X72140663Y-105242238D01*
X72140663Y-105242238D02*
X71950187Y-105242238D01*
X74521616Y-103908904D02*
X74521616Y-105242238D01*
X73664473Y-103908904D02*
X73664473Y-104956523D01*
X73664473Y-104956523D02*
X73759711Y-105147000D01*
X73759711Y-105147000D02*
X73950187Y-105242238D01*
X73950187Y-105242238D02*
X74235902Y-105242238D01*
X74235902Y-105242238D02*
X74426378Y-105147000D01*
X74426378Y-105147000D02*
X74521616Y-105051761D01*
X75759711Y-105242238D02*
X75569235Y-105147000D01*
X75569235Y-105147000D02*
X75473997Y-104956523D01*
X75473997Y-104956523D02*
X75473997Y-103242238D01*
X76521616Y-105242238D02*
X76521616Y-103908904D01*
X76521616Y-103242238D02*
X76426378Y-103337476D01*
X76426378Y-103337476D02*
X76521616Y-103432714D01*
X76521616Y-103432714D02*
X76616854Y-103337476D01*
X76616854Y-103337476D02*
X76521616Y-103242238D01*
X76521616Y-103242238D02*
X76521616Y-103432714D01*
X78331140Y-103908904D02*
X78331140Y-105242238D01*
X77473997Y-103908904D02*
X77473997Y-104956523D01*
X77473997Y-104956523D02*
X77569235Y-105147000D01*
X77569235Y-105147000D02*
X77759711Y-105242238D01*
X77759711Y-105242238D02*
X78045426Y-105242238D01*
X78045426Y-105242238D02*
X78235902Y-105147000D01*
X78235902Y-105147000D02*
X78331140Y-105051761D01*
X79188283Y-105147000D02*
X79378759Y-105242238D01*
X79378759Y-105242238D02*
X79759711Y-105242238D01*
X79759711Y-105242238D02*
X79950188Y-105147000D01*
X79950188Y-105147000D02*
X80045426Y-104956523D01*
X80045426Y-104956523D02*
X80045426Y-104861285D01*
X80045426Y-104861285D02*
X79950188Y-104670809D01*
X79950188Y-104670809D02*
X79759711Y-104575571D01*
X79759711Y-104575571D02*
X79473997Y-104575571D01*
X79473997Y-104575571D02*
X79283521Y-104480333D01*
X79283521Y-104480333D02*
X79188283Y-104289857D01*
X79188283Y-104289857D02*
X79188283Y-104194619D01*
X79188283Y-104194619D02*
X79283521Y-104004142D01*
X79283521Y-104004142D02*
X79473997Y-103908904D01*
X79473997Y-103908904D02*
X79759711Y-103908904D01*
X79759711Y-103908904D02*
X79950188Y-104004142D01*
X82331141Y-105147000D02*
X82616855Y-105242238D01*
X82616855Y-105242238D02*
X83093046Y-105242238D01*
X83093046Y-105242238D02*
X83283522Y-105147000D01*
X83283522Y-105147000D02*
X83378760Y-105051761D01*
X83378760Y-105051761D02*
X83473998Y-104861285D01*
X83473998Y-104861285D02*
X83473998Y-104670809D01*
X83473998Y-104670809D02*
X83378760Y-104480333D01*
X83378760Y-104480333D02*
X83283522Y-104385095D01*
X83283522Y-104385095D02*
X83093046Y-104289857D01*
X83093046Y-104289857D02*
X82712093Y-104194619D01*
X82712093Y-104194619D02*
X82521617Y-104099380D01*
X82521617Y-104099380D02*
X82426379Y-104004142D01*
X82426379Y-104004142D02*
X82331141Y-103813666D01*
X82331141Y-103813666D02*
X82331141Y-103623190D01*
X82331141Y-103623190D02*
X82426379Y-103432714D01*
X82426379Y-103432714D02*
X82521617Y-103337476D01*
X82521617Y-103337476D02*
X82712093Y-103242238D01*
X82712093Y-103242238D02*
X83188284Y-103242238D01*
X83188284Y-103242238D02*
X83473998Y-103337476D01*
X85188284Y-105147000D02*
X84997808Y-105242238D01*
X84997808Y-105242238D02*
X84616855Y-105242238D01*
X84616855Y-105242238D02*
X84426379Y-105147000D01*
X84426379Y-105147000D02*
X84331141Y-105051761D01*
X84331141Y-105051761D02*
X84235903Y-104861285D01*
X84235903Y-104861285D02*
X84235903Y-104289857D01*
X84235903Y-104289857D02*
X84331141Y-104099380D01*
X84331141Y-104099380D02*
X84426379Y-104004142D01*
X84426379Y-104004142D02*
X84616855Y-103908904D01*
X84616855Y-103908904D02*
X84997808Y-103908904D01*
X84997808Y-103908904D02*
X85188284Y-104004142D01*
X86045427Y-105242238D02*
X86045427Y-103242238D01*
X86902570Y-105242238D02*
X86902570Y-104194619D01*
X86902570Y-104194619D02*
X86807332Y-104004142D01*
X86807332Y-104004142D02*
X86616856Y-103908904D01*
X86616856Y-103908904D02*
X86331141Y-103908904D01*
X86331141Y-103908904D02*
X86140665Y-104004142D01*
X86140665Y-104004142D02*
X86045427Y-104099380D01*
X88712094Y-105242238D02*
X88712094Y-104194619D01*
X88712094Y-104194619D02*
X88616856Y-104004142D01*
X88616856Y-104004142D02*
X88426380Y-103908904D01*
X88426380Y-103908904D02*
X88045427Y-103908904D01*
X88045427Y-103908904D02*
X87854951Y-104004142D01*
X88712094Y-105147000D02*
X88521618Y-105242238D01*
X88521618Y-105242238D02*
X88045427Y-105242238D01*
X88045427Y-105242238D02*
X87854951Y-105147000D01*
X87854951Y-105147000D02*
X87759713Y-104956523D01*
X87759713Y-104956523D02*
X87759713Y-104766047D01*
X87759713Y-104766047D02*
X87854951Y-104575571D01*
X87854951Y-104575571D02*
X88045427Y-104480333D01*
X88045427Y-104480333D02*
X88521618Y-104480333D01*
X88521618Y-104480333D02*
X88712094Y-104385095D01*
X89664475Y-103908904D02*
X89664475Y-105908904D01*
X89664475Y-104004142D02*
X89854951Y-103908904D01*
X89854951Y-103908904D02*
X90235904Y-103908904D01*
X90235904Y-103908904D02*
X90426380Y-104004142D01*
X90426380Y-104004142D02*
X90521618Y-104099380D01*
X90521618Y-104099380D02*
X90616856Y-104289857D01*
X90616856Y-104289857D02*
X90616856Y-104861285D01*
X90616856Y-104861285D02*
X90521618Y-105051761D01*
X90521618Y-105051761D02*
X90426380Y-105147000D01*
X90426380Y-105147000D02*
X90235904Y-105242238D01*
X90235904Y-105242238D02*
X89854951Y-105242238D01*
X89854951Y-105242238D02*
X89664475Y-105147000D01*
X92331142Y-105242238D02*
X92331142Y-103242238D01*
X92331142Y-105147000D02*
X92140666Y-105242238D01*
X92140666Y-105242238D02*
X91759713Y-105242238D01*
X91759713Y-105242238D02*
X91569237Y-105147000D01*
X91569237Y-105147000D02*
X91473999Y-105051761D01*
X91473999Y-105051761D02*
X91378761Y-104861285D01*
X91378761Y-104861285D02*
X91378761Y-104289857D01*
X91378761Y-104289857D02*
X91473999Y-104099380D01*
X91473999Y-104099380D02*
X91569237Y-104004142D01*
X91569237Y-104004142D02*
X91759713Y-103908904D01*
X91759713Y-103908904D02*
X92140666Y-103908904D01*
X92140666Y-103908904D02*
X92331142Y-104004142D01*
X93283523Y-105242238D02*
X93283523Y-103908904D01*
X93283523Y-103242238D02*
X93188285Y-103337476D01*
X93188285Y-103337476D02*
X93283523Y-103432714D01*
X93283523Y-103432714D02*
X93378761Y-103337476D01*
X93378761Y-103337476D02*
X93283523Y-103242238D01*
X93283523Y-103242238D02*
X93283523Y-103432714D01*
X95093047Y-105147000D02*
X94902571Y-105242238D01*
X94902571Y-105242238D02*
X94521618Y-105242238D01*
X94521618Y-105242238D02*
X94331142Y-105147000D01*
X94331142Y-105147000D02*
X94235904Y-105051761D01*
X94235904Y-105051761D02*
X94140666Y-104861285D01*
X94140666Y-104861285D02*
X94140666Y-104289857D01*
X94140666Y-104289857D02*
X94235904Y-104099380D01*
X94235904Y-104099380D02*
X94331142Y-104004142D01*
X94331142Y-104004142D02*
X94521618Y-103908904D01*
X94521618Y-103908904D02*
X94902571Y-103908904D01*
X94902571Y-103908904D02*
X95093047Y-104004142D01*
X95950190Y-105242238D02*
X95950190Y-103242238D01*
X96140666Y-104480333D02*
X96712095Y-105242238D01*
X96712095Y-103908904D02*
X95950190Y-104670809D01*
X98997810Y-103432714D02*
X99093048Y-103337476D01*
X99093048Y-103337476D02*
X99283524Y-103242238D01*
X99283524Y-103242238D02*
X99759715Y-103242238D01*
X99759715Y-103242238D02*
X99950191Y-103337476D01*
X99950191Y-103337476D02*
X100045429Y-103432714D01*
X100045429Y-103432714D02*
X100140667Y-103623190D01*
X100140667Y-103623190D02*
X100140667Y-103813666D01*
X100140667Y-103813666D02*
X100045429Y-104099380D01*
X100045429Y-104099380D02*
X98902572Y-105242238D01*
X98902572Y-105242238D02*
X100140667Y-105242238D01*
X101378762Y-103242238D02*
X101569239Y-103242238D01*
X101569239Y-103242238D02*
X101759715Y-103337476D01*
X101759715Y-103337476D02*
X101854953Y-103432714D01*
X101854953Y-103432714D02*
X101950191Y-103623190D01*
X101950191Y-103623190D02*
X102045429Y-104004142D01*
X102045429Y-104004142D02*
X102045429Y-104480333D01*
X102045429Y-104480333D02*
X101950191Y-104861285D01*
X101950191Y-104861285D02*
X101854953Y-105051761D01*
X101854953Y-105051761D02*
X101759715Y-105147000D01*
X101759715Y-105147000D02*
X101569239Y-105242238D01*
X101569239Y-105242238D02*
X101378762Y-105242238D01*
X101378762Y-105242238D02*
X101188286Y-105147000D01*
X101188286Y-105147000D02*
X101093048Y-105051761D01*
X101093048Y-105051761D02*
X100997810Y-104861285D01*
X100997810Y-104861285D02*
X100902572Y-104480333D01*
X100902572Y-104480333D02*
X100902572Y-104004142D01*
X100902572Y-104004142D02*
X100997810Y-103623190D01*
X100997810Y-103623190D02*
X101093048Y-103432714D01*
X101093048Y-103432714D02*
X101188286Y-103337476D01*
X101188286Y-103337476D02*
X101378762Y-103242238D01*
X102807334Y-103432714D02*
X102902572Y-103337476D01*
X102902572Y-103337476D02*
X103093048Y-103242238D01*
X103093048Y-103242238D02*
X103569239Y-103242238D01*
X103569239Y-103242238D02*
X103759715Y-103337476D01*
X103759715Y-103337476D02*
X103854953Y-103432714D01*
X103854953Y-103432714D02*
X103950191Y-103623190D01*
X103950191Y-103623190D02*
X103950191Y-103813666D01*
X103950191Y-103813666D02*
X103854953Y-104099380D01*
X103854953Y-104099380D02*
X102712096Y-105242238D01*
X102712096Y-105242238D02*
X103950191Y-105242238D01*
X105664477Y-103908904D02*
X105664477Y-105242238D01*
X105188286Y-103147000D02*
X104712096Y-104575571D01*
X104712096Y-104575571D02*
X105950191Y-104575571D01*
D11*
X59666666Y-51324819D02*
X59666666Y-52039104D01*
X59666666Y-52039104D02*
X59619047Y-52181961D01*
X59619047Y-52181961D02*
X59523809Y-52277200D01*
X59523809Y-52277200D02*
X59380952Y-52324819D01*
X59380952Y-52324819D02*
X59285714Y-52324819D01*
X60571428Y-51324819D02*
X60380952Y-51324819D01*
X60380952Y-51324819D02*
X60285714Y-51372438D01*
X60285714Y-51372438D02*
X60238095Y-51420057D01*
X60238095Y-51420057D02*
X60142857Y-51562914D01*
X60142857Y-51562914D02*
X60095238Y-51753390D01*
X60095238Y-51753390D02*
X60095238Y-52134342D01*
X60095238Y-52134342D02*
X60142857Y-52229580D01*
X60142857Y-52229580D02*
X60190476Y-52277200D01*
X60190476Y-52277200D02*
X60285714Y-52324819D01*
X60285714Y-52324819D02*
X60476190Y-52324819D01*
X60476190Y-52324819D02*
X60571428Y-52277200D01*
X60571428Y-52277200D02*
X60619047Y-52229580D01*
X60619047Y-52229580D02*
X60666666Y-52134342D01*
X60666666Y-52134342D02*
X60666666Y-51896247D01*
X60666666Y-51896247D02*
X60619047Y-51801009D01*
X60619047Y-51801009D02*
X60571428Y-51753390D01*
X60571428Y-51753390D02*
X60476190Y-51705771D01*
X60476190Y-51705771D02*
X60285714Y-51705771D01*
X60285714Y-51705771D02*
X60190476Y-51753390D01*
X60190476Y-51753390D02*
X60142857Y-51801009D01*
X60142857Y-51801009D02*
X60095238Y-51896247D01*
X109261905Y-48054819D02*
X109261905Y-47054819D01*
X109261905Y-47054819D02*
X109500000Y-47054819D01*
X109500000Y-47054819D02*
X109642857Y-47102438D01*
X109642857Y-47102438D02*
X109738095Y-47197676D01*
X109738095Y-47197676D02*
X109785714Y-47292914D01*
X109785714Y-47292914D02*
X109833333Y-47483390D01*
X109833333Y-47483390D02*
X109833333Y-47626247D01*
X109833333Y-47626247D02*
X109785714Y-47816723D01*
X109785714Y-47816723D02*
X109738095Y-47911961D01*
X109738095Y-47911961D02*
X109642857Y-48007200D01*
X109642857Y-48007200D02*
X109500000Y-48054819D01*
X109500000Y-48054819D02*
X109261905Y-48054819D01*
X110214286Y-47150057D02*
X110261905Y-47102438D01*
X110261905Y-47102438D02*
X110357143Y-47054819D01*
X110357143Y-47054819D02*
X110595238Y-47054819D01*
X110595238Y-47054819D02*
X110690476Y-47102438D01*
X110690476Y-47102438D02*
X110738095Y-47150057D01*
X110738095Y-47150057D02*
X110785714Y-47245295D01*
X110785714Y-47245295D02*
X110785714Y-47340533D01*
X110785714Y-47340533D02*
X110738095Y-47483390D01*
X110738095Y-47483390D02*
X110166667Y-48054819D01*
X110166667Y-48054819D02*
X110785714Y-48054819D01*
X179261905Y-73054819D02*
X179261905Y-72054819D01*
X179261905Y-72054819D02*
X179500000Y-72054819D01*
X179500000Y-72054819D02*
X179642857Y-72102438D01*
X179642857Y-72102438D02*
X179738095Y-72197676D01*
X179738095Y-72197676D02*
X179785714Y-72292914D01*
X179785714Y-72292914D02*
X179833333Y-72483390D01*
X179833333Y-72483390D02*
X179833333Y-72626247D01*
X179833333Y-72626247D02*
X179785714Y-72816723D01*
X179785714Y-72816723D02*
X179738095Y-72911961D01*
X179738095Y-72911961D02*
X179642857Y-73007200D01*
X179642857Y-73007200D02*
X179500000Y-73054819D01*
X179500000Y-73054819D02*
X179261905Y-73054819D01*
X180404762Y-72483390D02*
X180309524Y-72435771D01*
X180309524Y-72435771D02*
X180261905Y-72388152D01*
X180261905Y-72388152D02*
X180214286Y-72292914D01*
X180214286Y-72292914D02*
X180214286Y-72245295D01*
X180214286Y-72245295D02*
X180261905Y-72150057D01*
X180261905Y-72150057D02*
X180309524Y-72102438D01*
X180309524Y-72102438D02*
X180404762Y-72054819D01*
X180404762Y-72054819D02*
X180595238Y-72054819D01*
X180595238Y-72054819D02*
X180690476Y-72102438D01*
X180690476Y-72102438D02*
X180738095Y-72150057D01*
X180738095Y-72150057D02*
X180785714Y-72245295D01*
X180785714Y-72245295D02*
X180785714Y-72292914D01*
X180785714Y-72292914D02*
X180738095Y-72388152D01*
X180738095Y-72388152D02*
X180690476Y-72435771D01*
X180690476Y-72435771D02*
X180595238Y-72483390D01*
X180595238Y-72483390D02*
X180404762Y-72483390D01*
X180404762Y-72483390D02*
X180309524Y-72531009D01*
X180309524Y-72531009D02*
X180261905Y-72578628D01*
X180261905Y-72578628D02*
X180214286Y-72673866D01*
X180214286Y-72673866D02*
X180214286Y-72864342D01*
X180214286Y-72864342D02*
X180261905Y-72959580D01*
X180261905Y-72959580D02*
X180309524Y-73007200D01*
X180309524Y-73007200D02*
X180404762Y-73054819D01*
X180404762Y-73054819D02*
X180595238Y-73054819D01*
X180595238Y-73054819D02*
X180690476Y-73007200D01*
X180690476Y-73007200D02*
X180738095Y-72959580D01*
X180738095Y-72959580D02*
X180785714Y-72864342D01*
X180785714Y-72864342D02*
X180785714Y-72673866D01*
X180785714Y-72673866D02*
X180738095Y-72578628D01*
X180738095Y-72578628D02*
X180690476Y-72531009D01*
X180690476Y-72531009D02*
X180595238Y-72483390D01*
X109261905Y-73054819D02*
X109261905Y-72054819D01*
X109261905Y-72054819D02*
X109500000Y-72054819D01*
X109500000Y-72054819D02*
X109642857Y-72102438D01*
X109642857Y-72102438D02*
X109738095Y-72197676D01*
X109738095Y-72197676D02*
X109785714Y-72292914D01*
X109785714Y-72292914D02*
X109833333Y-72483390D01*
X109833333Y-72483390D02*
X109833333Y-72626247D01*
X109833333Y-72626247D02*
X109785714Y-72816723D01*
X109785714Y-72816723D02*
X109738095Y-72911961D01*
X109738095Y-72911961D02*
X109642857Y-73007200D01*
X109642857Y-73007200D02*
X109500000Y-73054819D01*
X109500000Y-73054819D02*
X109261905Y-73054819D01*
X110690476Y-72054819D02*
X110500000Y-72054819D01*
X110500000Y-72054819D02*
X110404762Y-72102438D01*
X110404762Y-72102438D02*
X110357143Y-72150057D01*
X110357143Y-72150057D02*
X110261905Y-72292914D01*
X110261905Y-72292914D02*
X110214286Y-72483390D01*
X110214286Y-72483390D02*
X110214286Y-72864342D01*
X110214286Y-72864342D02*
X110261905Y-72959580D01*
X110261905Y-72959580D02*
X110309524Y-73007200D01*
X110309524Y-73007200D02*
X110404762Y-73054819D01*
X110404762Y-73054819D02*
X110595238Y-73054819D01*
X110595238Y-73054819D02*
X110690476Y-73007200D01*
X110690476Y-73007200D02*
X110738095Y-72959580D01*
X110738095Y-72959580D02*
X110785714Y-72864342D01*
X110785714Y-72864342D02*
X110785714Y-72626247D01*
X110785714Y-72626247D02*
X110738095Y-72531009D01*
X110738095Y-72531009D02*
X110690476Y-72483390D01*
X110690476Y-72483390D02*
X110595238Y-72435771D01*
X110595238Y-72435771D02*
X110404762Y-72435771D01*
X110404762Y-72435771D02*
X110309524Y-72483390D01*
X110309524Y-72483390D02*
X110261905Y-72531009D01*
X110261905Y-72531009D02*
X110214286Y-72626247D01*
X53454819Y-85714285D02*
X52454819Y-85714285D01*
X52454819Y-85714285D02*
X52454819Y-85476190D01*
X52454819Y-85476190D02*
X52502438Y-85333333D01*
X52502438Y-85333333D02*
X52597676Y-85238095D01*
X52597676Y-85238095D02*
X52692914Y-85190476D01*
X52692914Y-85190476D02*
X52883390Y-85142857D01*
X52883390Y-85142857D02*
X53026247Y-85142857D01*
X53026247Y-85142857D02*
X53216723Y-85190476D01*
X53216723Y-85190476D02*
X53311961Y-85238095D01*
X53311961Y-85238095D02*
X53407200Y-85333333D01*
X53407200Y-85333333D02*
X53454819Y-85476190D01*
X53454819Y-85476190D02*
X53454819Y-85714285D01*
X53454819Y-84190476D02*
X53454819Y-84761904D01*
X53454819Y-84476190D02*
X52454819Y-84476190D01*
X52454819Y-84476190D02*
X52597676Y-84571428D01*
X52597676Y-84571428D02*
X52692914Y-84666666D01*
X52692914Y-84666666D02*
X52740533Y-84761904D01*
X52454819Y-83285714D02*
X52454819Y-83761904D01*
X52454819Y-83761904D02*
X52931009Y-83809523D01*
X52931009Y-83809523D02*
X52883390Y-83761904D01*
X52883390Y-83761904D02*
X52835771Y-83666666D01*
X52835771Y-83666666D02*
X52835771Y-83428571D01*
X52835771Y-83428571D02*
X52883390Y-83333333D01*
X52883390Y-83333333D02*
X52931009Y-83285714D01*
X52931009Y-83285714D02*
X53026247Y-83238095D01*
X53026247Y-83238095D02*
X53264342Y-83238095D01*
X53264342Y-83238095D02*
X53359580Y-83285714D01*
X53359580Y-83285714D02*
X53407200Y-83333333D01*
X53407200Y-83333333D02*
X53454819Y-83428571D01*
X53454819Y-83428571D02*
X53454819Y-83666666D01*
X53454819Y-83666666D02*
X53407200Y-83761904D01*
X53407200Y-83761904D02*
X53359580Y-83809523D01*
X83785714Y-78054819D02*
X83785714Y-77054819D01*
X83785714Y-77054819D02*
X84023809Y-77054819D01*
X84023809Y-77054819D02*
X84166666Y-77102438D01*
X84166666Y-77102438D02*
X84261904Y-77197676D01*
X84261904Y-77197676D02*
X84309523Y-77292914D01*
X84309523Y-77292914D02*
X84357142Y-77483390D01*
X84357142Y-77483390D02*
X84357142Y-77626247D01*
X84357142Y-77626247D02*
X84309523Y-77816723D01*
X84309523Y-77816723D02*
X84261904Y-77911961D01*
X84261904Y-77911961D02*
X84166666Y-78007200D01*
X84166666Y-78007200D02*
X84023809Y-78054819D01*
X84023809Y-78054819D02*
X83785714Y-78054819D01*
X85309523Y-78054819D02*
X84738095Y-78054819D01*
X85023809Y-78054819D02*
X85023809Y-77054819D01*
X85023809Y-77054819D02*
X84928571Y-77197676D01*
X84928571Y-77197676D02*
X84833333Y-77292914D01*
X84833333Y-77292914D02*
X84738095Y-77340533D01*
X86166666Y-77054819D02*
X85976190Y-77054819D01*
X85976190Y-77054819D02*
X85880952Y-77102438D01*
X85880952Y-77102438D02*
X85833333Y-77150057D01*
X85833333Y-77150057D02*
X85738095Y-77292914D01*
X85738095Y-77292914D02*
X85690476Y-77483390D01*
X85690476Y-77483390D02*
X85690476Y-77864342D01*
X85690476Y-77864342D02*
X85738095Y-77959580D01*
X85738095Y-77959580D02*
X85785714Y-78007200D01*
X85785714Y-78007200D02*
X85880952Y-78054819D01*
X85880952Y-78054819D02*
X86071428Y-78054819D01*
X86071428Y-78054819D02*
X86166666Y-78007200D01*
X86166666Y-78007200D02*
X86214285Y-77959580D01*
X86214285Y-77959580D02*
X86261904Y-77864342D01*
X86261904Y-77864342D02*
X86261904Y-77626247D01*
X86261904Y-77626247D02*
X86214285Y-77531009D01*
X86214285Y-77531009D02*
X86166666Y-77483390D01*
X86166666Y-77483390D02*
X86071428Y-77435771D01*
X86071428Y-77435771D02*
X85880952Y-77435771D01*
X85880952Y-77435771D02*
X85785714Y-77483390D01*
X85785714Y-77483390D02*
X85738095Y-77531009D01*
X85738095Y-77531009D02*
X85690476Y-77626247D01*
X58928571Y-88884819D02*
X58595238Y-88408628D01*
X58357143Y-88884819D02*
X58357143Y-87884819D01*
X58357143Y-87884819D02*
X58738095Y-87884819D01*
X58738095Y-87884819D02*
X58833333Y-87932438D01*
X58833333Y-87932438D02*
X58880952Y-87980057D01*
X58880952Y-87980057D02*
X58928571Y-88075295D01*
X58928571Y-88075295D02*
X58928571Y-88218152D01*
X58928571Y-88218152D02*
X58880952Y-88313390D01*
X58880952Y-88313390D02*
X58833333Y-88361009D01*
X58833333Y-88361009D02*
X58738095Y-88408628D01*
X58738095Y-88408628D02*
X58357143Y-88408628D01*
X59261905Y-87884819D02*
X59880952Y-87884819D01*
X59880952Y-87884819D02*
X59547619Y-88265771D01*
X59547619Y-88265771D02*
X59690476Y-88265771D01*
X59690476Y-88265771D02*
X59785714Y-88313390D01*
X59785714Y-88313390D02*
X59833333Y-88361009D01*
X59833333Y-88361009D02*
X59880952Y-88456247D01*
X59880952Y-88456247D02*
X59880952Y-88694342D01*
X59880952Y-88694342D02*
X59833333Y-88789580D01*
X59833333Y-88789580D02*
X59785714Y-88837200D01*
X59785714Y-88837200D02*
X59690476Y-88884819D01*
X59690476Y-88884819D02*
X59404762Y-88884819D01*
X59404762Y-88884819D02*
X59309524Y-88837200D01*
X59309524Y-88837200D02*
X59261905Y-88789580D01*
X60261905Y-88599104D02*
X60738095Y-88599104D01*
X60166667Y-88884819D02*
X60500000Y-87884819D01*
X60500000Y-87884819D02*
X60833333Y-88884819D01*
X61690476Y-88884819D02*
X61119048Y-88884819D01*
X61404762Y-88884819D02*
X61404762Y-87884819D01*
X61404762Y-87884819D02*
X61309524Y-88027676D01*
X61309524Y-88027676D02*
X61214286Y-88122914D01*
X61214286Y-88122914D02*
X61119048Y-88170533D01*
X153785714Y-53054819D02*
X153785714Y-52054819D01*
X153785714Y-52054819D02*
X154023809Y-52054819D01*
X154023809Y-52054819D02*
X154166666Y-52102438D01*
X154166666Y-52102438D02*
X154261904Y-52197676D01*
X154261904Y-52197676D02*
X154309523Y-52292914D01*
X154309523Y-52292914D02*
X154357142Y-52483390D01*
X154357142Y-52483390D02*
X154357142Y-52626247D01*
X154357142Y-52626247D02*
X154309523Y-52816723D01*
X154309523Y-52816723D02*
X154261904Y-52911961D01*
X154261904Y-52911961D02*
X154166666Y-53007200D01*
X154166666Y-53007200D02*
X154023809Y-53054819D01*
X154023809Y-53054819D02*
X153785714Y-53054819D01*
X154690476Y-52054819D02*
X155309523Y-52054819D01*
X155309523Y-52054819D02*
X154976190Y-52435771D01*
X154976190Y-52435771D02*
X155119047Y-52435771D01*
X155119047Y-52435771D02*
X155214285Y-52483390D01*
X155214285Y-52483390D02*
X155261904Y-52531009D01*
X155261904Y-52531009D02*
X155309523Y-52626247D01*
X155309523Y-52626247D02*
X155309523Y-52864342D01*
X155309523Y-52864342D02*
X155261904Y-52959580D01*
X155261904Y-52959580D02*
X155214285Y-53007200D01*
X155214285Y-53007200D02*
X155119047Y-53054819D01*
X155119047Y-53054819D02*
X154833333Y-53054819D01*
X154833333Y-53054819D02*
X154738095Y-53007200D01*
X154738095Y-53007200D02*
X154690476Y-52959580D01*
X156166666Y-52054819D02*
X155976190Y-52054819D01*
X155976190Y-52054819D02*
X155880952Y-52102438D01*
X155880952Y-52102438D02*
X155833333Y-52150057D01*
X155833333Y-52150057D02*
X155738095Y-52292914D01*
X155738095Y-52292914D02*
X155690476Y-52483390D01*
X155690476Y-52483390D02*
X155690476Y-52864342D01*
X155690476Y-52864342D02*
X155738095Y-52959580D01*
X155738095Y-52959580D02*
X155785714Y-53007200D01*
X155785714Y-53007200D02*
X155880952Y-53054819D01*
X155880952Y-53054819D02*
X156071428Y-53054819D01*
X156071428Y-53054819D02*
X156166666Y-53007200D01*
X156166666Y-53007200D02*
X156214285Y-52959580D01*
X156214285Y-52959580D02*
X156261904Y-52864342D01*
X156261904Y-52864342D02*
X156261904Y-52626247D01*
X156261904Y-52626247D02*
X156214285Y-52531009D01*
X156214285Y-52531009D02*
X156166666Y-52483390D01*
X156166666Y-52483390D02*
X156071428Y-52435771D01*
X156071428Y-52435771D02*
X155880952Y-52435771D01*
X155880952Y-52435771D02*
X155785714Y-52483390D01*
X155785714Y-52483390D02*
X155738095Y-52531009D01*
X155738095Y-52531009D02*
X155690476Y-52626247D01*
X74261905Y-48054819D02*
X74261905Y-47054819D01*
X74261905Y-47054819D02*
X74500000Y-47054819D01*
X74500000Y-47054819D02*
X74642857Y-47102438D01*
X74642857Y-47102438D02*
X74738095Y-47197676D01*
X74738095Y-47197676D02*
X74785714Y-47292914D01*
X74785714Y-47292914D02*
X74833333Y-47483390D01*
X74833333Y-47483390D02*
X74833333Y-47626247D01*
X74833333Y-47626247D02*
X74785714Y-47816723D01*
X74785714Y-47816723D02*
X74738095Y-47911961D01*
X74738095Y-47911961D02*
X74642857Y-48007200D01*
X74642857Y-48007200D02*
X74500000Y-48054819D01*
X74500000Y-48054819D02*
X74261905Y-48054819D01*
X75785714Y-48054819D02*
X75214286Y-48054819D01*
X75500000Y-48054819D02*
X75500000Y-47054819D01*
X75500000Y-47054819D02*
X75404762Y-47197676D01*
X75404762Y-47197676D02*
X75309524Y-47292914D01*
X75309524Y-47292914D02*
X75214286Y-47340533D01*
X53835714Y-100392319D02*
X53835714Y-99392319D01*
X53835714Y-99392319D02*
X54073809Y-99392319D01*
X54073809Y-99392319D02*
X54216666Y-99439938D01*
X54216666Y-99439938D02*
X54311904Y-99535176D01*
X54311904Y-99535176D02*
X54359523Y-99630414D01*
X54359523Y-99630414D02*
X54407142Y-99820890D01*
X54407142Y-99820890D02*
X54407142Y-99963747D01*
X54407142Y-99963747D02*
X54359523Y-100154223D01*
X54359523Y-100154223D02*
X54311904Y-100249461D01*
X54311904Y-100249461D02*
X54216666Y-100344700D01*
X54216666Y-100344700D02*
X54073809Y-100392319D01*
X54073809Y-100392319D02*
X53835714Y-100392319D01*
X55359523Y-100392319D02*
X54788095Y-100392319D01*
X55073809Y-100392319D02*
X55073809Y-99392319D01*
X55073809Y-99392319D02*
X54978571Y-99535176D01*
X54978571Y-99535176D02*
X54883333Y-99630414D01*
X54883333Y-99630414D02*
X54788095Y-99678033D01*
X56216666Y-99725652D02*
X56216666Y-100392319D01*
X55978571Y-99344700D02*
X55740476Y-100058985D01*
X55740476Y-100058985D02*
X56359523Y-100058985D01*
X67738095Y-85454819D02*
X67738095Y-86264342D01*
X67738095Y-86264342D02*
X67785714Y-86359580D01*
X67785714Y-86359580D02*
X67833333Y-86407200D01*
X67833333Y-86407200D02*
X67928571Y-86454819D01*
X67928571Y-86454819D02*
X68119047Y-86454819D01*
X68119047Y-86454819D02*
X68214285Y-86407200D01*
X68214285Y-86407200D02*
X68261904Y-86359580D01*
X68261904Y-86359580D02*
X68309523Y-86264342D01*
X68309523Y-86264342D02*
X68309523Y-85454819D01*
X68738095Y-85550057D02*
X68785714Y-85502438D01*
X68785714Y-85502438D02*
X68880952Y-85454819D01*
X68880952Y-85454819D02*
X69119047Y-85454819D01*
X69119047Y-85454819D02*
X69214285Y-85502438D01*
X69214285Y-85502438D02*
X69261904Y-85550057D01*
X69261904Y-85550057D02*
X69309523Y-85645295D01*
X69309523Y-85645295D02*
X69309523Y-85740533D01*
X69309523Y-85740533D02*
X69261904Y-85883390D01*
X69261904Y-85883390D02*
X68690476Y-86454819D01*
X68690476Y-86454819D02*
X69309523Y-86454819D01*
X58261904Y-62502438D02*
X58166666Y-62454819D01*
X58166666Y-62454819D02*
X58023809Y-62454819D01*
X58023809Y-62454819D02*
X57880952Y-62502438D01*
X57880952Y-62502438D02*
X57785714Y-62597676D01*
X57785714Y-62597676D02*
X57738095Y-62692914D01*
X57738095Y-62692914D02*
X57690476Y-62883390D01*
X57690476Y-62883390D02*
X57690476Y-63026247D01*
X57690476Y-63026247D02*
X57738095Y-63216723D01*
X57738095Y-63216723D02*
X57785714Y-63311961D01*
X57785714Y-63311961D02*
X57880952Y-63407200D01*
X57880952Y-63407200D02*
X58023809Y-63454819D01*
X58023809Y-63454819D02*
X58119047Y-63454819D01*
X58119047Y-63454819D02*
X58261904Y-63407200D01*
X58261904Y-63407200D02*
X58309523Y-63359580D01*
X58309523Y-63359580D02*
X58309523Y-63026247D01*
X58309523Y-63026247D02*
X58119047Y-63026247D01*
X58738095Y-63454819D02*
X58738095Y-62454819D01*
X58738095Y-62454819D02*
X59309523Y-63454819D01*
X59309523Y-63454819D02*
X59309523Y-62454819D01*
X59785714Y-63454819D02*
X59785714Y-62454819D01*
X59785714Y-62454819D02*
X60023809Y-62454819D01*
X60023809Y-62454819D02*
X60166666Y-62502438D01*
X60166666Y-62502438D02*
X60261904Y-62597676D01*
X60261904Y-62597676D02*
X60309523Y-62692914D01*
X60309523Y-62692914D02*
X60357142Y-62883390D01*
X60357142Y-62883390D02*
X60357142Y-63026247D01*
X60357142Y-63026247D02*
X60309523Y-63216723D01*
X60309523Y-63216723D02*
X60261904Y-63311961D01*
X60261904Y-63311961D02*
X60166666Y-63407200D01*
X60166666Y-63407200D02*
X60023809Y-63454819D01*
X60023809Y-63454819D02*
X59785714Y-63454819D01*
X61309523Y-63454819D02*
X60738095Y-63454819D01*
X61023809Y-63454819D02*
X61023809Y-62454819D01*
X61023809Y-62454819D02*
X60928571Y-62597676D01*
X60928571Y-62597676D02*
X60833333Y-62692914D01*
X60833333Y-62692914D02*
X60738095Y-62740533D01*
X144261905Y-48054819D02*
X144261905Y-47054819D01*
X144261905Y-47054819D02*
X144500000Y-47054819D01*
X144500000Y-47054819D02*
X144642857Y-47102438D01*
X144642857Y-47102438D02*
X144738095Y-47197676D01*
X144738095Y-47197676D02*
X144785714Y-47292914D01*
X144785714Y-47292914D02*
X144833333Y-47483390D01*
X144833333Y-47483390D02*
X144833333Y-47626247D01*
X144833333Y-47626247D02*
X144785714Y-47816723D01*
X144785714Y-47816723D02*
X144738095Y-47911961D01*
X144738095Y-47911961D02*
X144642857Y-48007200D01*
X144642857Y-48007200D02*
X144500000Y-48054819D01*
X144500000Y-48054819D02*
X144261905Y-48054819D01*
X145166667Y-47054819D02*
X145785714Y-47054819D01*
X145785714Y-47054819D02*
X145452381Y-47435771D01*
X145452381Y-47435771D02*
X145595238Y-47435771D01*
X145595238Y-47435771D02*
X145690476Y-47483390D01*
X145690476Y-47483390D02*
X145738095Y-47531009D01*
X145738095Y-47531009D02*
X145785714Y-47626247D01*
X145785714Y-47626247D02*
X145785714Y-47864342D01*
X145785714Y-47864342D02*
X145738095Y-47959580D01*
X145738095Y-47959580D02*
X145690476Y-48007200D01*
X145690476Y-48007200D02*
X145595238Y-48054819D01*
X145595238Y-48054819D02*
X145309524Y-48054819D01*
X145309524Y-48054819D02*
X145214286Y-48007200D01*
X145214286Y-48007200D02*
X145166667Y-47959580D01*
X168785714Y-97854819D02*
X168785714Y-96854819D01*
X168785714Y-96854819D02*
X169023809Y-96854819D01*
X169023809Y-96854819D02*
X169166666Y-96902438D01*
X169166666Y-96902438D02*
X169261904Y-96997676D01*
X169261904Y-96997676D02*
X169309523Y-97092914D01*
X169309523Y-97092914D02*
X169357142Y-97283390D01*
X169357142Y-97283390D02*
X169357142Y-97426247D01*
X169357142Y-97426247D02*
X169309523Y-97616723D01*
X169309523Y-97616723D02*
X169261904Y-97711961D01*
X169261904Y-97711961D02*
X169166666Y-97807200D01*
X169166666Y-97807200D02*
X169023809Y-97854819D01*
X169023809Y-97854819D02*
X168785714Y-97854819D01*
X169738095Y-96950057D02*
X169785714Y-96902438D01*
X169785714Y-96902438D02*
X169880952Y-96854819D01*
X169880952Y-96854819D02*
X170119047Y-96854819D01*
X170119047Y-96854819D02*
X170214285Y-96902438D01*
X170214285Y-96902438D02*
X170261904Y-96950057D01*
X170261904Y-96950057D02*
X170309523Y-97045295D01*
X170309523Y-97045295D02*
X170309523Y-97140533D01*
X170309523Y-97140533D02*
X170261904Y-97283390D01*
X170261904Y-97283390D02*
X169690476Y-97854819D01*
X169690476Y-97854819D02*
X170309523Y-97854819D01*
X170642857Y-96854819D02*
X171309523Y-96854819D01*
X171309523Y-96854819D02*
X170880952Y-97854819D01*
X74261905Y-73054819D02*
X74261905Y-72054819D01*
X74261905Y-72054819D02*
X74500000Y-72054819D01*
X74500000Y-72054819D02*
X74642857Y-72102438D01*
X74642857Y-72102438D02*
X74738095Y-72197676D01*
X74738095Y-72197676D02*
X74785714Y-72292914D01*
X74785714Y-72292914D02*
X74833333Y-72483390D01*
X74833333Y-72483390D02*
X74833333Y-72626247D01*
X74833333Y-72626247D02*
X74785714Y-72816723D01*
X74785714Y-72816723D02*
X74738095Y-72911961D01*
X74738095Y-72911961D02*
X74642857Y-73007200D01*
X74642857Y-73007200D02*
X74500000Y-73054819D01*
X74500000Y-73054819D02*
X74261905Y-73054819D01*
X75738095Y-72054819D02*
X75261905Y-72054819D01*
X75261905Y-72054819D02*
X75214286Y-72531009D01*
X75214286Y-72531009D02*
X75261905Y-72483390D01*
X75261905Y-72483390D02*
X75357143Y-72435771D01*
X75357143Y-72435771D02*
X75595238Y-72435771D01*
X75595238Y-72435771D02*
X75690476Y-72483390D01*
X75690476Y-72483390D02*
X75738095Y-72531009D01*
X75738095Y-72531009D02*
X75785714Y-72626247D01*
X75785714Y-72626247D02*
X75785714Y-72864342D01*
X75785714Y-72864342D02*
X75738095Y-72959580D01*
X75738095Y-72959580D02*
X75690476Y-73007200D01*
X75690476Y-73007200D02*
X75595238Y-73054819D01*
X75595238Y-73054819D02*
X75357143Y-73054819D01*
X75357143Y-73054819D02*
X75261905Y-73007200D01*
X75261905Y-73007200D02*
X75214286Y-72959580D01*
X53454819Y-70714285D02*
X52454819Y-70714285D01*
X52454819Y-70714285D02*
X52454819Y-70476190D01*
X52454819Y-70476190D02*
X52502438Y-70333333D01*
X52502438Y-70333333D02*
X52597676Y-70238095D01*
X52597676Y-70238095D02*
X52692914Y-70190476D01*
X52692914Y-70190476D02*
X52883390Y-70142857D01*
X52883390Y-70142857D02*
X53026247Y-70142857D01*
X53026247Y-70142857D02*
X53216723Y-70190476D01*
X53216723Y-70190476D02*
X53311961Y-70238095D01*
X53311961Y-70238095D02*
X53407200Y-70333333D01*
X53407200Y-70333333D02*
X53454819Y-70476190D01*
X53454819Y-70476190D02*
X53454819Y-70714285D01*
X53454819Y-69190476D02*
X53454819Y-69761904D01*
X53454819Y-69476190D02*
X52454819Y-69476190D01*
X52454819Y-69476190D02*
X52597676Y-69571428D01*
X52597676Y-69571428D02*
X52692914Y-69666666D01*
X52692914Y-69666666D02*
X52740533Y-69761904D01*
X52454819Y-68857142D02*
X52454819Y-68238095D01*
X52454819Y-68238095D02*
X52835771Y-68571428D01*
X52835771Y-68571428D02*
X52835771Y-68428571D01*
X52835771Y-68428571D02*
X52883390Y-68333333D01*
X52883390Y-68333333D02*
X52931009Y-68285714D01*
X52931009Y-68285714D02*
X53026247Y-68238095D01*
X53026247Y-68238095D02*
X53264342Y-68238095D01*
X53264342Y-68238095D02*
X53359580Y-68285714D01*
X53359580Y-68285714D02*
X53407200Y-68333333D01*
X53407200Y-68333333D02*
X53454819Y-68428571D01*
X53454819Y-68428571D02*
X53454819Y-68714285D01*
X53454819Y-68714285D02*
X53407200Y-68809523D01*
X53407200Y-68809523D02*
X53359580Y-68857142D01*
X74261905Y-98054819D02*
X74261905Y-97054819D01*
X74261905Y-97054819D02*
X74500000Y-97054819D01*
X74500000Y-97054819D02*
X74642857Y-97102438D01*
X74642857Y-97102438D02*
X74738095Y-97197676D01*
X74738095Y-97197676D02*
X74785714Y-97292914D01*
X74785714Y-97292914D02*
X74833333Y-97483390D01*
X74833333Y-97483390D02*
X74833333Y-97626247D01*
X74833333Y-97626247D02*
X74785714Y-97816723D01*
X74785714Y-97816723D02*
X74738095Y-97911961D01*
X74738095Y-97911961D02*
X74642857Y-98007200D01*
X74642857Y-98007200D02*
X74500000Y-98054819D01*
X74500000Y-98054819D02*
X74261905Y-98054819D01*
X75309524Y-98054819D02*
X75500000Y-98054819D01*
X75500000Y-98054819D02*
X75595238Y-98007200D01*
X75595238Y-98007200D02*
X75642857Y-97959580D01*
X75642857Y-97959580D02*
X75738095Y-97816723D01*
X75738095Y-97816723D02*
X75785714Y-97626247D01*
X75785714Y-97626247D02*
X75785714Y-97245295D01*
X75785714Y-97245295D02*
X75738095Y-97150057D01*
X75738095Y-97150057D02*
X75690476Y-97102438D01*
X75690476Y-97102438D02*
X75595238Y-97054819D01*
X75595238Y-97054819D02*
X75404762Y-97054819D01*
X75404762Y-97054819D02*
X75309524Y-97102438D01*
X75309524Y-97102438D02*
X75261905Y-97150057D01*
X75261905Y-97150057D02*
X75214286Y-97245295D01*
X75214286Y-97245295D02*
X75214286Y-97483390D01*
X75214286Y-97483390D02*
X75261905Y-97578628D01*
X75261905Y-97578628D02*
X75309524Y-97626247D01*
X75309524Y-97626247D02*
X75404762Y-97673866D01*
X75404762Y-97673866D02*
X75595238Y-97673866D01*
X75595238Y-97673866D02*
X75690476Y-97626247D01*
X75690476Y-97626247D02*
X75738095Y-97578628D01*
X75738095Y-97578628D02*
X75785714Y-97483390D01*
X83785714Y-68054819D02*
X83785714Y-67054819D01*
X83785714Y-67054819D02*
X84023809Y-67054819D01*
X84023809Y-67054819D02*
X84166666Y-67102438D01*
X84166666Y-67102438D02*
X84261904Y-67197676D01*
X84261904Y-67197676D02*
X84309523Y-67292914D01*
X84309523Y-67292914D02*
X84357142Y-67483390D01*
X84357142Y-67483390D02*
X84357142Y-67626247D01*
X84357142Y-67626247D02*
X84309523Y-67816723D01*
X84309523Y-67816723D02*
X84261904Y-67911961D01*
X84261904Y-67911961D02*
X84166666Y-68007200D01*
X84166666Y-68007200D02*
X84023809Y-68054819D01*
X84023809Y-68054819D02*
X83785714Y-68054819D01*
X84738095Y-67150057D02*
X84785714Y-67102438D01*
X84785714Y-67102438D02*
X84880952Y-67054819D01*
X84880952Y-67054819D02*
X85119047Y-67054819D01*
X85119047Y-67054819D02*
X85214285Y-67102438D01*
X85214285Y-67102438D02*
X85261904Y-67150057D01*
X85261904Y-67150057D02*
X85309523Y-67245295D01*
X85309523Y-67245295D02*
X85309523Y-67340533D01*
X85309523Y-67340533D02*
X85261904Y-67483390D01*
X85261904Y-67483390D02*
X84690476Y-68054819D01*
X84690476Y-68054819D02*
X85309523Y-68054819D01*
X85785714Y-68054819D02*
X85976190Y-68054819D01*
X85976190Y-68054819D02*
X86071428Y-68007200D01*
X86071428Y-68007200D02*
X86119047Y-67959580D01*
X86119047Y-67959580D02*
X86214285Y-67816723D01*
X86214285Y-67816723D02*
X86261904Y-67626247D01*
X86261904Y-67626247D02*
X86261904Y-67245295D01*
X86261904Y-67245295D02*
X86214285Y-67150057D01*
X86214285Y-67150057D02*
X86166666Y-67102438D01*
X86166666Y-67102438D02*
X86071428Y-67054819D01*
X86071428Y-67054819D02*
X85880952Y-67054819D01*
X85880952Y-67054819D02*
X85785714Y-67102438D01*
X85785714Y-67102438D02*
X85738095Y-67150057D01*
X85738095Y-67150057D02*
X85690476Y-67245295D01*
X85690476Y-67245295D02*
X85690476Y-67483390D01*
X85690476Y-67483390D02*
X85738095Y-67578628D01*
X85738095Y-67578628D02*
X85785714Y-67626247D01*
X85785714Y-67626247D02*
X85880952Y-67673866D01*
X85880952Y-67673866D02*
X86071428Y-67673866D01*
X86071428Y-67673866D02*
X86166666Y-67626247D01*
X86166666Y-67626247D02*
X86214285Y-67578628D01*
X86214285Y-67578628D02*
X86261904Y-67483390D01*
X118785714Y-72854819D02*
X118785714Y-71854819D01*
X118785714Y-71854819D02*
X119023809Y-71854819D01*
X119023809Y-71854819D02*
X119166666Y-71902438D01*
X119166666Y-71902438D02*
X119261904Y-71997676D01*
X119261904Y-71997676D02*
X119309523Y-72092914D01*
X119309523Y-72092914D02*
X119357142Y-72283390D01*
X119357142Y-72283390D02*
X119357142Y-72426247D01*
X119357142Y-72426247D02*
X119309523Y-72616723D01*
X119309523Y-72616723D02*
X119261904Y-72711961D01*
X119261904Y-72711961D02*
X119166666Y-72807200D01*
X119166666Y-72807200D02*
X119023809Y-72854819D01*
X119023809Y-72854819D02*
X118785714Y-72854819D01*
X119690476Y-71854819D02*
X120309523Y-71854819D01*
X120309523Y-71854819D02*
X119976190Y-72235771D01*
X119976190Y-72235771D02*
X120119047Y-72235771D01*
X120119047Y-72235771D02*
X120214285Y-72283390D01*
X120214285Y-72283390D02*
X120261904Y-72331009D01*
X120261904Y-72331009D02*
X120309523Y-72426247D01*
X120309523Y-72426247D02*
X120309523Y-72664342D01*
X120309523Y-72664342D02*
X120261904Y-72759580D01*
X120261904Y-72759580D02*
X120214285Y-72807200D01*
X120214285Y-72807200D02*
X120119047Y-72854819D01*
X120119047Y-72854819D02*
X119833333Y-72854819D01*
X119833333Y-72854819D02*
X119738095Y-72807200D01*
X119738095Y-72807200D02*
X119690476Y-72759580D01*
X120642857Y-71854819D02*
X121261904Y-71854819D01*
X121261904Y-71854819D02*
X120928571Y-72235771D01*
X120928571Y-72235771D02*
X121071428Y-72235771D01*
X121071428Y-72235771D02*
X121166666Y-72283390D01*
X121166666Y-72283390D02*
X121214285Y-72331009D01*
X121214285Y-72331009D02*
X121261904Y-72426247D01*
X121261904Y-72426247D02*
X121261904Y-72664342D01*
X121261904Y-72664342D02*
X121214285Y-72759580D01*
X121214285Y-72759580D02*
X121166666Y-72807200D01*
X121166666Y-72807200D02*
X121071428Y-72854819D01*
X121071428Y-72854819D02*
X120785714Y-72854819D01*
X120785714Y-72854819D02*
X120690476Y-72807200D01*
X120690476Y-72807200D02*
X120642857Y-72759580D01*
X53857142Y-73884819D02*
X53523809Y-73408628D01*
X53285714Y-73884819D02*
X53285714Y-72884819D01*
X53285714Y-72884819D02*
X53666666Y-72884819D01*
X53666666Y-72884819D02*
X53761904Y-72932438D01*
X53761904Y-72932438D02*
X53809523Y-72980057D01*
X53809523Y-72980057D02*
X53857142Y-73075295D01*
X53857142Y-73075295D02*
X53857142Y-73218152D01*
X53857142Y-73218152D02*
X53809523Y-73313390D01*
X53809523Y-73313390D02*
X53761904Y-73361009D01*
X53761904Y-73361009D02*
X53666666Y-73408628D01*
X53666666Y-73408628D02*
X53285714Y-73408628D01*
X54809523Y-73884819D02*
X54238095Y-73884819D01*
X54523809Y-73884819D02*
X54523809Y-72884819D01*
X54523809Y-72884819D02*
X54428571Y-73027676D01*
X54428571Y-73027676D02*
X54333333Y-73122914D01*
X54333333Y-73122914D02*
X54238095Y-73170533D01*
X55571428Y-73361009D02*
X55714285Y-73408628D01*
X55714285Y-73408628D02*
X55761904Y-73456247D01*
X55761904Y-73456247D02*
X55809523Y-73551485D01*
X55809523Y-73551485D02*
X55809523Y-73694342D01*
X55809523Y-73694342D02*
X55761904Y-73789580D01*
X55761904Y-73789580D02*
X55714285Y-73837200D01*
X55714285Y-73837200D02*
X55619047Y-73884819D01*
X55619047Y-73884819D02*
X55238095Y-73884819D01*
X55238095Y-73884819D02*
X55238095Y-72884819D01*
X55238095Y-72884819D02*
X55571428Y-72884819D01*
X55571428Y-72884819D02*
X55666666Y-72932438D01*
X55666666Y-72932438D02*
X55714285Y-72980057D01*
X55714285Y-72980057D02*
X55761904Y-73075295D01*
X55761904Y-73075295D02*
X55761904Y-73170533D01*
X55761904Y-73170533D02*
X55714285Y-73265771D01*
X55714285Y-73265771D02*
X55666666Y-73313390D01*
X55666666Y-73313390D02*
X55571428Y-73361009D01*
X55571428Y-73361009D02*
X55238095Y-73361009D01*
X56761904Y-73884819D02*
X56190476Y-73884819D01*
X56476190Y-73884819D02*
X56476190Y-72884819D01*
X56476190Y-72884819D02*
X56380952Y-73027676D01*
X56380952Y-73027676D02*
X56285714Y-73122914D01*
X56285714Y-73122914D02*
X56190476Y-73170533D01*
X62357142Y-78806819D02*
X61880952Y-78806819D01*
X61880952Y-78806819D02*
X61880952Y-77806819D01*
X62690476Y-78283009D02*
X63023809Y-78283009D01*
X63166666Y-78806819D02*
X62690476Y-78806819D01*
X62690476Y-78806819D02*
X62690476Y-77806819D01*
X62690476Y-77806819D02*
X63166666Y-77806819D01*
X63595238Y-78806819D02*
X63595238Y-77806819D01*
X63595238Y-77806819D02*
X63833333Y-77806819D01*
X63833333Y-77806819D02*
X63976190Y-77854438D01*
X63976190Y-77854438D02*
X64071428Y-77949676D01*
X64071428Y-77949676D02*
X64119047Y-78044914D01*
X64119047Y-78044914D02*
X64166666Y-78235390D01*
X64166666Y-78235390D02*
X64166666Y-78378247D01*
X64166666Y-78378247D02*
X64119047Y-78568723D01*
X64119047Y-78568723D02*
X64071428Y-78663961D01*
X64071428Y-78663961D02*
X63976190Y-78759200D01*
X63976190Y-78759200D02*
X63833333Y-78806819D01*
X63833333Y-78806819D02*
X63595238Y-78806819D01*
X64357143Y-78902057D02*
X65119047Y-78902057D01*
X65261905Y-77806819D02*
X65500000Y-78806819D01*
X65500000Y-78806819D02*
X65690476Y-78092533D01*
X65690476Y-78092533D02*
X65880952Y-78806819D01*
X65880952Y-78806819D02*
X66119048Y-77806819D01*
X66404762Y-77806819D02*
X66642857Y-78806819D01*
X66642857Y-78806819D02*
X66833333Y-78092533D01*
X66833333Y-78092533D02*
X67023809Y-78806819D01*
X67023809Y-78806819D02*
X67261905Y-77806819D01*
X67595238Y-77902057D02*
X67642857Y-77854438D01*
X67642857Y-77854438D02*
X67738095Y-77806819D01*
X67738095Y-77806819D02*
X67976190Y-77806819D01*
X67976190Y-77806819D02*
X68071428Y-77854438D01*
X68071428Y-77854438D02*
X68119047Y-77902057D01*
X68119047Y-77902057D02*
X68166666Y-77997295D01*
X68166666Y-77997295D02*
X68166666Y-78092533D01*
X68166666Y-78092533D02*
X68119047Y-78235390D01*
X68119047Y-78235390D02*
X67547619Y-78806819D01*
X67547619Y-78806819D02*
X68166666Y-78806819D01*
X172785714Y-80454819D02*
X172785714Y-79454819D01*
X172785714Y-79454819D02*
X173023809Y-79454819D01*
X173023809Y-79454819D02*
X173166666Y-79502438D01*
X173166666Y-79502438D02*
X173261904Y-79597676D01*
X173261904Y-79597676D02*
X173309523Y-79692914D01*
X173309523Y-79692914D02*
X173357142Y-79883390D01*
X173357142Y-79883390D02*
X173357142Y-80026247D01*
X173357142Y-80026247D02*
X173309523Y-80216723D01*
X173309523Y-80216723D02*
X173261904Y-80311961D01*
X173261904Y-80311961D02*
X173166666Y-80407200D01*
X173166666Y-80407200D02*
X173023809Y-80454819D01*
X173023809Y-80454819D02*
X172785714Y-80454819D01*
X173738095Y-79550057D02*
X173785714Y-79502438D01*
X173785714Y-79502438D02*
X173880952Y-79454819D01*
X173880952Y-79454819D02*
X174119047Y-79454819D01*
X174119047Y-79454819D02*
X174214285Y-79502438D01*
X174214285Y-79502438D02*
X174261904Y-79550057D01*
X174261904Y-79550057D02*
X174309523Y-79645295D01*
X174309523Y-79645295D02*
X174309523Y-79740533D01*
X174309523Y-79740533D02*
X174261904Y-79883390D01*
X174261904Y-79883390D02*
X173690476Y-80454819D01*
X173690476Y-80454819D02*
X174309523Y-80454819D01*
X175166666Y-79454819D02*
X174976190Y-79454819D01*
X174976190Y-79454819D02*
X174880952Y-79502438D01*
X174880952Y-79502438D02*
X174833333Y-79550057D01*
X174833333Y-79550057D02*
X174738095Y-79692914D01*
X174738095Y-79692914D02*
X174690476Y-79883390D01*
X174690476Y-79883390D02*
X174690476Y-80264342D01*
X174690476Y-80264342D02*
X174738095Y-80359580D01*
X174738095Y-80359580D02*
X174785714Y-80407200D01*
X174785714Y-80407200D02*
X174880952Y-80454819D01*
X174880952Y-80454819D02*
X175071428Y-80454819D01*
X175071428Y-80454819D02*
X175166666Y-80407200D01*
X175166666Y-80407200D02*
X175214285Y-80359580D01*
X175214285Y-80359580D02*
X175261904Y-80264342D01*
X175261904Y-80264342D02*
X175261904Y-80026247D01*
X175261904Y-80026247D02*
X175214285Y-79931009D01*
X175214285Y-79931009D02*
X175166666Y-79883390D01*
X175166666Y-79883390D02*
X175071428Y-79835771D01*
X175071428Y-79835771D02*
X174880952Y-79835771D01*
X174880952Y-79835771D02*
X174785714Y-79883390D01*
X174785714Y-79883390D02*
X174738095Y-79931009D01*
X174738095Y-79931009D02*
X174690476Y-80026247D01*
X133785714Y-82854819D02*
X133785714Y-81854819D01*
X133785714Y-81854819D02*
X134023809Y-81854819D01*
X134023809Y-81854819D02*
X134166666Y-81902438D01*
X134166666Y-81902438D02*
X134261904Y-81997676D01*
X134261904Y-81997676D02*
X134309523Y-82092914D01*
X134309523Y-82092914D02*
X134357142Y-82283390D01*
X134357142Y-82283390D02*
X134357142Y-82426247D01*
X134357142Y-82426247D02*
X134309523Y-82616723D01*
X134309523Y-82616723D02*
X134261904Y-82711961D01*
X134261904Y-82711961D02*
X134166666Y-82807200D01*
X134166666Y-82807200D02*
X134023809Y-82854819D01*
X134023809Y-82854819D02*
X133785714Y-82854819D01*
X134738095Y-81950057D02*
X134785714Y-81902438D01*
X134785714Y-81902438D02*
X134880952Y-81854819D01*
X134880952Y-81854819D02*
X135119047Y-81854819D01*
X135119047Y-81854819D02*
X135214285Y-81902438D01*
X135214285Y-81902438D02*
X135261904Y-81950057D01*
X135261904Y-81950057D02*
X135309523Y-82045295D01*
X135309523Y-82045295D02*
X135309523Y-82140533D01*
X135309523Y-82140533D02*
X135261904Y-82283390D01*
X135261904Y-82283390D02*
X134690476Y-82854819D01*
X134690476Y-82854819D02*
X135309523Y-82854819D01*
X135690476Y-81950057D02*
X135738095Y-81902438D01*
X135738095Y-81902438D02*
X135833333Y-81854819D01*
X135833333Y-81854819D02*
X136071428Y-81854819D01*
X136071428Y-81854819D02*
X136166666Y-81902438D01*
X136166666Y-81902438D02*
X136214285Y-81950057D01*
X136214285Y-81950057D02*
X136261904Y-82045295D01*
X136261904Y-82045295D02*
X136261904Y-82140533D01*
X136261904Y-82140533D02*
X136214285Y-82283390D01*
X136214285Y-82283390D02*
X135642857Y-82854819D01*
X135642857Y-82854819D02*
X136261904Y-82854819D01*
X65261905Y-46073866D02*
X66023810Y-46073866D01*
X65642857Y-46454819D02*
X65642857Y-45692914D01*
X67023809Y-46454819D02*
X66452381Y-46454819D01*
X66738095Y-46454819D02*
X66738095Y-45454819D01*
X66738095Y-45454819D02*
X66642857Y-45597676D01*
X66642857Y-45597676D02*
X66547619Y-45692914D01*
X66547619Y-45692914D02*
X66452381Y-45740533D01*
X67404762Y-45550057D02*
X67452381Y-45502438D01*
X67452381Y-45502438D02*
X67547619Y-45454819D01*
X67547619Y-45454819D02*
X67785714Y-45454819D01*
X67785714Y-45454819D02*
X67880952Y-45502438D01*
X67880952Y-45502438D02*
X67928571Y-45550057D01*
X67928571Y-45550057D02*
X67976190Y-45645295D01*
X67976190Y-45645295D02*
X67976190Y-45740533D01*
X67976190Y-45740533D02*
X67928571Y-45883390D01*
X67928571Y-45883390D02*
X67357143Y-46454819D01*
X67357143Y-46454819D02*
X67976190Y-46454819D01*
X68261905Y-45454819D02*
X68595238Y-46454819D01*
X68595238Y-46454819D02*
X68928571Y-45454819D01*
X69785714Y-46454819D02*
X69214286Y-46454819D01*
X69500000Y-46454819D02*
X69500000Y-45454819D01*
X69500000Y-45454819D02*
X69404762Y-45597676D01*
X69404762Y-45597676D02*
X69309524Y-45692914D01*
X69309524Y-45692914D02*
X69214286Y-45740533D01*
X58535866Y-73884819D02*
X58202533Y-73408628D01*
X57964438Y-73884819D02*
X57964438Y-72884819D01*
X57964438Y-72884819D02*
X58345390Y-72884819D01*
X58345390Y-72884819D02*
X58440628Y-72932438D01*
X58440628Y-72932438D02*
X58488247Y-72980057D01*
X58488247Y-72980057D02*
X58535866Y-73075295D01*
X58535866Y-73075295D02*
X58535866Y-73218152D01*
X58535866Y-73218152D02*
X58488247Y-73313390D01*
X58488247Y-73313390D02*
X58440628Y-73361009D01*
X58440628Y-73361009D02*
X58345390Y-73408628D01*
X58345390Y-73408628D02*
X57964438Y-73408628D01*
X59488247Y-73884819D02*
X58916819Y-73884819D01*
X59202533Y-73884819D02*
X59202533Y-72884819D01*
X59202533Y-72884819D02*
X59107295Y-73027676D01*
X59107295Y-73027676D02*
X59012057Y-73122914D01*
X59012057Y-73122914D02*
X58916819Y-73170533D01*
X59869200Y-73599104D02*
X60345390Y-73599104D01*
X59773962Y-73884819D02*
X60107295Y-72884819D01*
X60107295Y-72884819D02*
X60440628Y-73884819D01*
X61297771Y-73884819D02*
X60726343Y-73884819D01*
X61012057Y-73884819D02*
X61012057Y-72884819D01*
X61012057Y-72884819D02*
X60916819Y-73027676D01*
X60916819Y-73027676D02*
X60821581Y-73122914D01*
X60821581Y-73122914D02*
X60726343Y-73170533D01*
X53857142Y-88884819D02*
X53523809Y-88408628D01*
X53285714Y-88884819D02*
X53285714Y-87884819D01*
X53285714Y-87884819D02*
X53666666Y-87884819D01*
X53666666Y-87884819D02*
X53761904Y-87932438D01*
X53761904Y-87932438D02*
X53809523Y-87980057D01*
X53809523Y-87980057D02*
X53857142Y-88075295D01*
X53857142Y-88075295D02*
X53857142Y-88218152D01*
X53857142Y-88218152D02*
X53809523Y-88313390D01*
X53809523Y-88313390D02*
X53761904Y-88361009D01*
X53761904Y-88361009D02*
X53666666Y-88408628D01*
X53666666Y-88408628D02*
X53285714Y-88408628D01*
X54190476Y-87884819D02*
X54809523Y-87884819D01*
X54809523Y-87884819D02*
X54476190Y-88265771D01*
X54476190Y-88265771D02*
X54619047Y-88265771D01*
X54619047Y-88265771D02*
X54714285Y-88313390D01*
X54714285Y-88313390D02*
X54761904Y-88361009D01*
X54761904Y-88361009D02*
X54809523Y-88456247D01*
X54809523Y-88456247D02*
X54809523Y-88694342D01*
X54809523Y-88694342D02*
X54761904Y-88789580D01*
X54761904Y-88789580D02*
X54714285Y-88837200D01*
X54714285Y-88837200D02*
X54619047Y-88884819D01*
X54619047Y-88884819D02*
X54333333Y-88884819D01*
X54333333Y-88884819D02*
X54238095Y-88837200D01*
X54238095Y-88837200D02*
X54190476Y-88789580D01*
X55571428Y-88361009D02*
X55714285Y-88408628D01*
X55714285Y-88408628D02*
X55761904Y-88456247D01*
X55761904Y-88456247D02*
X55809523Y-88551485D01*
X55809523Y-88551485D02*
X55809523Y-88694342D01*
X55809523Y-88694342D02*
X55761904Y-88789580D01*
X55761904Y-88789580D02*
X55714285Y-88837200D01*
X55714285Y-88837200D02*
X55619047Y-88884819D01*
X55619047Y-88884819D02*
X55238095Y-88884819D01*
X55238095Y-88884819D02*
X55238095Y-87884819D01*
X55238095Y-87884819D02*
X55571428Y-87884819D01*
X55571428Y-87884819D02*
X55666666Y-87932438D01*
X55666666Y-87932438D02*
X55714285Y-87980057D01*
X55714285Y-87980057D02*
X55761904Y-88075295D01*
X55761904Y-88075295D02*
X55761904Y-88170533D01*
X55761904Y-88170533D02*
X55714285Y-88265771D01*
X55714285Y-88265771D02*
X55666666Y-88313390D01*
X55666666Y-88313390D02*
X55571428Y-88361009D01*
X55571428Y-88361009D02*
X55238095Y-88361009D01*
X56761904Y-88884819D02*
X56190476Y-88884819D01*
X56476190Y-88884819D02*
X56476190Y-87884819D01*
X56476190Y-87884819D02*
X56380952Y-88027676D01*
X56380952Y-88027676D02*
X56285714Y-88122914D01*
X56285714Y-88122914D02*
X56190476Y-88170533D01*
X133785714Y-53054819D02*
X133785714Y-52054819D01*
X133785714Y-52054819D02*
X134023809Y-52054819D01*
X134023809Y-52054819D02*
X134166666Y-52102438D01*
X134166666Y-52102438D02*
X134261904Y-52197676D01*
X134261904Y-52197676D02*
X134309523Y-52292914D01*
X134309523Y-52292914D02*
X134357142Y-52483390D01*
X134357142Y-52483390D02*
X134357142Y-52626247D01*
X134357142Y-52626247D02*
X134309523Y-52816723D01*
X134309523Y-52816723D02*
X134261904Y-52911961D01*
X134261904Y-52911961D02*
X134166666Y-53007200D01*
X134166666Y-53007200D02*
X134023809Y-53054819D01*
X134023809Y-53054819D02*
X133785714Y-53054819D01*
X134690476Y-52054819D02*
X135309523Y-52054819D01*
X135309523Y-52054819D02*
X134976190Y-52435771D01*
X134976190Y-52435771D02*
X135119047Y-52435771D01*
X135119047Y-52435771D02*
X135214285Y-52483390D01*
X135214285Y-52483390D02*
X135261904Y-52531009D01*
X135261904Y-52531009D02*
X135309523Y-52626247D01*
X135309523Y-52626247D02*
X135309523Y-52864342D01*
X135309523Y-52864342D02*
X135261904Y-52959580D01*
X135261904Y-52959580D02*
X135214285Y-53007200D01*
X135214285Y-53007200D02*
X135119047Y-53054819D01*
X135119047Y-53054819D02*
X134833333Y-53054819D01*
X134833333Y-53054819D02*
X134738095Y-53007200D01*
X134738095Y-53007200D02*
X134690476Y-52959580D01*
X136166666Y-52388152D02*
X136166666Y-53054819D01*
X135928571Y-52007200D02*
X135690476Y-52721485D01*
X135690476Y-52721485D02*
X136309523Y-52721485D01*
X143785714Y-98054819D02*
X143785714Y-97054819D01*
X143785714Y-97054819D02*
X144023809Y-97054819D01*
X144023809Y-97054819D02*
X144166666Y-97102438D01*
X144166666Y-97102438D02*
X144261904Y-97197676D01*
X144261904Y-97197676D02*
X144309523Y-97292914D01*
X144309523Y-97292914D02*
X144357142Y-97483390D01*
X144357142Y-97483390D02*
X144357142Y-97626247D01*
X144357142Y-97626247D02*
X144309523Y-97816723D01*
X144309523Y-97816723D02*
X144261904Y-97911961D01*
X144261904Y-97911961D02*
X144166666Y-98007200D01*
X144166666Y-98007200D02*
X144023809Y-98054819D01*
X144023809Y-98054819D02*
X143785714Y-98054819D01*
X145309523Y-98054819D02*
X144738095Y-98054819D01*
X145023809Y-98054819D02*
X145023809Y-97054819D01*
X145023809Y-97054819D02*
X144928571Y-97197676D01*
X144928571Y-97197676D02*
X144833333Y-97292914D01*
X144833333Y-97292914D02*
X144738095Y-97340533D01*
X146261904Y-98054819D02*
X145690476Y-98054819D01*
X145976190Y-98054819D02*
X145976190Y-97054819D01*
X145976190Y-97054819D02*
X145880952Y-97197676D01*
X145880952Y-97197676D02*
X145785714Y-97292914D01*
X145785714Y-97292914D02*
X145690476Y-97340533D01*
X51595238Y-75954819D02*
X51595238Y-74954819D01*
X51595238Y-74954819D02*
X51976190Y-74954819D01*
X51976190Y-74954819D02*
X52071428Y-75002438D01*
X52071428Y-75002438D02*
X52119047Y-75050057D01*
X52119047Y-75050057D02*
X52166666Y-75145295D01*
X52166666Y-75145295D02*
X52166666Y-75288152D01*
X52166666Y-75288152D02*
X52119047Y-75383390D01*
X52119047Y-75383390D02*
X52071428Y-75431009D01*
X52071428Y-75431009D02*
X51976190Y-75478628D01*
X51976190Y-75478628D02*
X51595238Y-75478628D01*
X52500000Y-74954819D02*
X52738095Y-75954819D01*
X52738095Y-75954819D02*
X52928571Y-75240533D01*
X52928571Y-75240533D02*
X53119047Y-75954819D01*
X53119047Y-75954819D02*
X53357143Y-74954819D01*
X53738095Y-75954819D02*
X53738095Y-74954819D01*
X53738095Y-74954819D02*
X54071428Y-75669104D01*
X54071428Y-75669104D02*
X54404761Y-74954819D01*
X54404761Y-74954819D02*
X54404761Y-75954819D01*
X54642857Y-76050057D02*
X55404761Y-76050057D01*
X55547619Y-74954819D02*
X55785714Y-75954819D01*
X55785714Y-75954819D02*
X55976190Y-75240533D01*
X55976190Y-75240533D02*
X56166666Y-75954819D01*
X56166666Y-75954819D02*
X56404762Y-74954819D01*
X56690476Y-74954819D02*
X56928571Y-75954819D01*
X56928571Y-75954819D02*
X57119047Y-75240533D01*
X57119047Y-75240533D02*
X57309523Y-75954819D01*
X57309523Y-75954819D02*
X57547619Y-74954819D01*
X57880952Y-75050057D02*
X57928571Y-75002438D01*
X57928571Y-75002438D02*
X58023809Y-74954819D01*
X58023809Y-74954819D02*
X58261904Y-74954819D01*
X58261904Y-74954819D02*
X58357142Y-75002438D01*
X58357142Y-75002438D02*
X58404761Y-75050057D01*
X58404761Y-75050057D02*
X58452380Y-75145295D01*
X58452380Y-75145295D02*
X58452380Y-75240533D01*
X58452380Y-75240533D02*
X58404761Y-75383390D01*
X58404761Y-75383390D02*
X57833333Y-75954819D01*
X57833333Y-75954819D02*
X58452380Y-75954819D01*
X44666666Y-70274819D02*
X44666666Y-70989104D01*
X44666666Y-70989104D02*
X44619047Y-71131961D01*
X44619047Y-71131961D02*
X44523809Y-71227200D01*
X44523809Y-71227200D02*
X44380952Y-71274819D01*
X44380952Y-71274819D02*
X44285714Y-71274819D01*
X45095238Y-70370057D02*
X45142857Y-70322438D01*
X45142857Y-70322438D02*
X45238095Y-70274819D01*
X45238095Y-70274819D02*
X45476190Y-70274819D01*
X45476190Y-70274819D02*
X45571428Y-70322438D01*
X45571428Y-70322438D02*
X45619047Y-70370057D01*
X45619047Y-70370057D02*
X45666666Y-70465295D01*
X45666666Y-70465295D02*
X45666666Y-70560533D01*
X45666666Y-70560533D02*
X45619047Y-70703390D01*
X45619047Y-70703390D02*
X45047619Y-71274819D01*
X45047619Y-71274819D02*
X45666666Y-71274819D01*
X64833333Y-76209580D02*
X64785714Y-76257200D01*
X64785714Y-76257200D02*
X64642857Y-76304819D01*
X64642857Y-76304819D02*
X64547619Y-76304819D01*
X64547619Y-76304819D02*
X64404762Y-76257200D01*
X64404762Y-76257200D02*
X64309524Y-76161961D01*
X64309524Y-76161961D02*
X64261905Y-76066723D01*
X64261905Y-76066723D02*
X64214286Y-75876247D01*
X64214286Y-75876247D02*
X64214286Y-75733390D01*
X64214286Y-75733390D02*
X64261905Y-75542914D01*
X64261905Y-75542914D02*
X64309524Y-75447676D01*
X64309524Y-75447676D02*
X64404762Y-75352438D01*
X64404762Y-75352438D02*
X64547619Y-75304819D01*
X64547619Y-75304819D02*
X64642857Y-75304819D01*
X64642857Y-75304819D02*
X64785714Y-75352438D01*
X64785714Y-75352438D02*
X64833333Y-75400057D01*
X65785714Y-76304819D02*
X65214286Y-76304819D01*
X65500000Y-76304819D02*
X65500000Y-75304819D01*
X65500000Y-75304819D02*
X65404762Y-75447676D01*
X65404762Y-75447676D02*
X65309524Y-75542914D01*
X65309524Y-75542914D02*
X65214286Y-75590533D01*
X118785714Y-57854819D02*
X118785714Y-56854819D01*
X118785714Y-56854819D02*
X119023809Y-56854819D01*
X119023809Y-56854819D02*
X119166666Y-56902438D01*
X119166666Y-56902438D02*
X119261904Y-56997676D01*
X119261904Y-56997676D02*
X119309523Y-57092914D01*
X119309523Y-57092914D02*
X119357142Y-57283390D01*
X119357142Y-57283390D02*
X119357142Y-57426247D01*
X119357142Y-57426247D02*
X119309523Y-57616723D01*
X119309523Y-57616723D02*
X119261904Y-57711961D01*
X119261904Y-57711961D02*
X119166666Y-57807200D01*
X119166666Y-57807200D02*
X119023809Y-57854819D01*
X119023809Y-57854819D02*
X118785714Y-57854819D01*
X119690476Y-56854819D02*
X120309523Y-56854819D01*
X120309523Y-56854819D02*
X119976190Y-57235771D01*
X119976190Y-57235771D02*
X120119047Y-57235771D01*
X120119047Y-57235771D02*
X120214285Y-57283390D01*
X120214285Y-57283390D02*
X120261904Y-57331009D01*
X120261904Y-57331009D02*
X120309523Y-57426247D01*
X120309523Y-57426247D02*
X120309523Y-57664342D01*
X120309523Y-57664342D02*
X120261904Y-57759580D01*
X120261904Y-57759580D02*
X120214285Y-57807200D01*
X120214285Y-57807200D02*
X120119047Y-57854819D01*
X120119047Y-57854819D02*
X119833333Y-57854819D01*
X119833333Y-57854819D02*
X119738095Y-57807200D01*
X119738095Y-57807200D02*
X119690476Y-57759580D01*
X120690476Y-56950057D02*
X120738095Y-56902438D01*
X120738095Y-56902438D02*
X120833333Y-56854819D01*
X120833333Y-56854819D02*
X121071428Y-56854819D01*
X121071428Y-56854819D02*
X121166666Y-56902438D01*
X121166666Y-56902438D02*
X121214285Y-56950057D01*
X121214285Y-56950057D02*
X121261904Y-57045295D01*
X121261904Y-57045295D02*
X121261904Y-57140533D01*
X121261904Y-57140533D02*
X121214285Y-57283390D01*
X121214285Y-57283390D02*
X120642857Y-57854819D01*
X120642857Y-57854819D02*
X121261904Y-57854819D01*
X133785714Y-68054819D02*
X133785714Y-67054819D01*
X133785714Y-67054819D02*
X134023809Y-67054819D01*
X134023809Y-67054819D02*
X134166666Y-67102438D01*
X134166666Y-67102438D02*
X134261904Y-67197676D01*
X134261904Y-67197676D02*
X134309523Y-67292914D01*
X134309523Y-67292914D02*
X134357142Y-67483390D01*
X134357142Y-67483390D02*
X134357142Y-67626247D01*
X134357142Y-67626247D02*
X134309523Y-67816723D01*
X134309523Y-67816723D02*
X134261904Y-67911961D01*
X134261904Y-67911961D02*
X134166666Y-68007200D01*
X134166666Y-68007200D02*
X134023809Y-68054819D01*
X134023809Y-68054819D02*
X133785714Y-68054819D01*
X134690476Y-67054819D02*
X135309523Y-67054819D01*
X135309523Y-67054819D02*
X134976190Y-67435771D01*
X134976190Y-67435771D02*
X135119047Y-67435771D01*
X135119047Y-67435771D02*
X135214285Y-67483390D01*
X135214285Y-67483390D02*
X135261904Y-67531009D01*
X135261904Y-67531009D02*
X135309523Y-67626247D01*
X135309523Y-67626247D02*
X135309523Y-67864342D01*
X135309523Y-67864342D02*
X135261904Y-67959580D01*
X135261904Y-67959580D02*
X135214285Y-68007200D01*
X135214285Y-68007200D02*
X135119047Y-68054819D01*
X135119047Y-68054819D02*
X134833333Y-68054819D01*
X134833333Y-68054819D02*
X134738095Y-68007200D01*
X134738095Y-68007200D02*
X134690476Y-67959580D01*
X136214285Y-67054819D02*
X135738095Y-67054819D01*
X135738095Y-67054819D02*
X135690476Y-67531009D01*
X135690476Y-67531009D02*
X135738095Y-67483390D01*
X135738095Y-67483390D02*
X135833333Y-67435771D01*
X135833333Y-67435771D02*
X136071428Y-67435771D01*
X136071428Y-67435771D02*
X136166666Y-67483390D01*
X136166666Y-67483390D02*
X136214285Y-67531009D01*
X136214285Y-67531009D02*
X136261904Y-67626247D01*
X136261904Y-67626247D02*
X136261904Y-67864342D01*
X136261904Y-67864342D02*
X136214285Y-67959580D01*
X136214285Y-67959580D02*
X136166666Y-68007200D01*
X136166666Y-68007200D02*
X136071428Y-68054819D01*
X136071428Y-68054819D02*
X135833333Y-68054819D01*
X135833333Y-68054819D02*
X135738095Y-68007200D01*
X135738095Y-68007200D02*
X135690476Y-67959580D01*
X52166666Y-76954819D02*
X52166666Y-77669104D01*
X52166666Y-77669104D02*
X52119047Y-77811961D01*
X52119047Y-77811961D02*
X52023809Y-77907200D01*
X52023809Y-77907200D02*
X51880952Y-77954819D01*
X51880952Y-77954819D02*
X51785714Y-77954819D01*
X53119047Y-76954819D02*
X52642857Y-76954819D01*
X52642857Y-76954819D02*
X52595238Y-77431009D01*
X52595238Y-77431009D02*
X52642857Y-77383390D01*
X52642857Y-77383390D02*
X52738095Y-77335771D01*
X52738095Y-77335771D02*
X52976190Y-77335771D01*
X52976190Y-77335771D02*
X53071428Y-77383390D01*
X53071428Y-77383390D02*
X53119047Y-77431009D01*
X53119047Y-77431009D02*
X53166666Y-77526247D01*
X53166666Y-77526247D02*
X53166666Y-77764342D01*
X53166666Y-77764342D02*
X53119047Y-77859580D01*
X53119047Y-77859580D02*
X53071428Y-77907200D01*
X53071428Y-77907200D02*
X52976190Y-77954819D01*
X52976190Y-77954819D02*
X52738095Y-77954819D01*
X52738095Y-77954819D02*
X52642857Y-77907200D01*
X52642857Y-77907200D02*
X52595238Y-77859580D01*
X50666666Y-92954819D02*
X50666666Y-93669104D01*
X50666666Y-93669104D02*
X50619047Y-93811961D01*
X50619047Y-93811961D02*
X50523809Y-93907200D01*
X50523809Y-93907200D02*
X50380952Y-93954819D01*
X50380952Y-93954819D02*
X50285714Y-93954819D01*
X51571428Y-93288152D02*
X51571428Y-93954819D01*
X51333333Y-92907200D02*
X51095238Y-93621485D01*
X51095238Y-93621485D02*
X51714285Y-93621485D01*
X64833333Y-91209580D02*
X64785714Y-91257200D01*
X64785714Y-91257200D02*
X64642857Y-91304819D01*
X64642857Y-91304819D02*
X64547619Y-91304819D01*
X64547619Y-91304819D02*
X64404762Y-91257200D01*
X64404762Y-91257200D02*
X64309524Y-91161961D01*
X64309524Y-91161961D02*
X64261905Y-91066723D01*
X64261905Y-91066723D02*
X64214286Y-90876247D01*
X64214286Y-90876247D02*
X64214286Y-90733390D01*
X64214286Y-90733390D02*
X64261905Y-90542914D01*
X64261905Y-90542914D02*
X64309524Y-90447676D01*
X64309524Y-90447676D02*
X64404762Y-90352438D01*
X64404762Y-90352438D02*
X64547619Y-90304819D01*
X64547619Y-90304819D02*
X64642857Y-90304819D01*
X64642857Y-90304819D02*
X64785714Y-90352438D01*
X64785714Y-90352438D02*
X64833333Y-90400057D01*
X65214286Y-90400057D02*
X65261905Y-90352438D01*
X65261905Y-90352438D02*
X65357143Y-90304819D01*
X65357143Y-90304819D02*
X65595238Y-90304819D01*
X65595238Y-90304819D02*
X65690476Y-90352438D01*
X65690476Y-90352438D02*
X65738095Y-90400057D01*
X65738095Y-90400057D02*
X65785714Y-90495295D01*
X65785714Y-90495295D02*
X65785714Y-90590533D01*
X65785714Y-90590533D02*
X65738095Y-90733390D01*
X65738095Y-90733390D02*
X65166667Y-91304819D01*
X65166667Y-91304819D02*
X65785714Y-91304819D01*
X137785714Y-95454819D02*
X137785714Y-94454819D01*
X137785714Y-94454819D02*
X138023809Y-94454819D01*
X138023809Y-94454819D02*
X138166666Y-94502438D01*
X138166666Y-94502438D02*
X138261904Y-94597676D01*
X138261904Y-94597676D02*
X138309523Y-94692914D01*
X138309523Y-94692914D02*
X138357142Y-94883390D01*
X138357142Y-94883390D02*
X138357142Y-95026247D01*
X138357142Y-95026247D02*
X138309523Y-95216723D01*
X138309523Y-95216723D02*
X138261904Y-95311961D01*
X138261904Y-95311961D02*
X138166666Y-95407200D01*
X138166666Y-95407200D02*
X138023809Y-95454819D01*
X138023809Y-95454819D02*
X137785714Y-95454819D01*
X138738095Y-94550057D02*
X138785714Y-94502438D01*
X138785714Y-94502438D02*
X138880952Y-94454819D01*
X138880952Y-94454819D02*
X139119047Y-94454819D01*
X139119047Y-94454819D02*
X139214285Y-94502438D01*
X139214285Y-94502438D02*
X139261904Y-94550057D01*
X139261904Y-94550057D02*
X139309523Y-94645295D01*
X139309523Y-94645295D02*
X139309523Y-94740533D01*
X139309523Y-94740533D02*
X139261904Y-94883390D01*
X139261904Y-94883390D02*
X138690476Y-95454819D01*
X138690476Y-95454819D02*
X139309523Y-95454819D01*
X139642857Y-94454819D02*
X140261904Y-94454819D01*
X140261904Y-94454819D02*
X139928571Y-94835771D01*
X139928571Y-94835771D02*
X140071428Y-94835771D01*
X140071428Y-94835771D02*
X140166666Y-94883390D01*
X140166666Y-94883390D02*
X140214285Y-94931009D01*
X140214285Y-94931009D02*
X140261904Y-95026247D01*
X140261904Y-95026247D02*
X140261904Y-95264342D01*
X140261904Y-95264342D02*
X140214285Y-95359580D01*
X140214285Y-95359580D02*
X140166666Y-95407200D01*
X140166666Y-95407200D02*
X140071428Y-95454819D01*
X140071428Y-95454819D02*
X139785714Y-95454819D01*
X139785714Y-95454819D02*
X139690476Y-95407200D01*
X139690476Y-95407200D02*
X139642857Y-95359580D01*
X69952380Y-67454819D02*
X69476190Y-67454819D01*
X69476190Y-67454819D02*
X69476190Y-66454819D01*
X70285714Y-66931009D02*
X70619047Y-66931009D01*
X70761904Y-67454819D02*
X70285714Y-67454819D01*
X70285714Y-67454819D02*
X70285714Y-66454819D01*
X70285714Y-66454819D02*
X70761904Y-66454819D01*
X71190476Y-67454819D02*
X71190476Y-66454819D01*
X71190476Y-66454819D02*
X71428571Y-66454819D01*
X71428571Y-66454819D02*
X71571428Y-66502438D01*
X71571428Y-66502438D02*
X71666666Y-66597676D01*
X71666666Y-66597676D02*
X71714285Y-66692914D01*
X71714285Y-66692914D02*
X71761904Y-66883390D01*
X71761904Y-66883390D02*
X71761904Y-67026247D01*
X71761904Y-67026247D02*
X71714285Y-67216723D01*
X71714285Y-67216723D02*
X71666666Y-67311961D01*
X71666666Y-67311961D02*
X71571428Y-67407200D01*
X71571428Y-67407200D02*
X71428571Y-67454819D01*
X71428571Y-67454819D02*
X71190476Y-67454819D01*
X71952381Y-67550057D02*
X72714285Y-67550057D01*
X73523809Y-67454819D02*
X73190476Y-66978628D01*
X72952381Y-67454819D02*
X72952381Y-66454819D01*
X72952381Y-66454819D02*
X73333333Y-66454819D01*
X73333333Y-66454819D02*
X73428571Y-66502438D01*
X73428571Y-66502438D02*
X73476190Y-66550057D01*
X73476190Y-66550057D02*
X73523809Y-66645295D01*
X73523809Y-66645295D02*
X73523809Y-66788152D01*
X73523809Y-66788152D02*
X73476190Y-66883390D01*
X73476190Y-66883390D02*
X73428571Y-66931009D01*
X73428571Y-66931009D02*
X73333333Y-66978628D01*
X73333333Y-66978628D02*
X72952381Y-66978628D01*
X73952381Y-66931009D02*
X74285714Y-66931009D01*
X74428571Y-67454819D02*
X73952381Y-67454819D01*
X73952381Y-67454819D02*
X73952381Y-66454819D01*
X73952381Y-66454819D02*
X74428571Y-66454819D01*
X74857143Y-67454819D02*
X74857143Y-66454819D01*
X74857143Y-66454819D02*
X75095238Y-66454819D01*
X75095238Y-66454819D02*
X75238095Y-66502438D01*
X75238095Y-66502438D02*
X75333333Y-66597676D01*
X75333333Y-66597676D02*
X75380952Y-66692914D01*
X75380952Y-66692914D02*
X75428571Y-66883390D01*
X75428571Y-66883390D02*
X75428571Y-67026247D01*
X75428571Y-67026247D02*
X75380952Y-67216723D01*
X75380952Y-67216723D02*
X75333333Y-67311961D01*
X75333333Y-67311961D02*
X75238095Y-67407200D01*
X75238095Y-67407200D02*
X75095238Y-67454819D01*
X75095238Y-67454819D02*
X74857143Y-67454819D01*
X76380952Y-67454819D02*
X75809524Y-67454819D01*
X76095238Y-67454819D02*
X76095238Y-66454819D01*
X76095238Y-66454819D02*
X76000000Y-66597676D01*
X76000000Y-66597676D02*
X75904762Y-66692914D01*
X75904762Y-66692914D02*
X75809524Y-66740533D01*
X76809524Y-67073866D02*
X77571429Y-67073866D01*
X77190476Y-67454819D02*
X77190476Y-66692914D01*
X78571428Y-67454819D02*
X78000000Y-67454819D01*
X78285714Y-67454819D02*
X78285714Y-66454819D01*
X78285714Y-66454819D02*
X78190476Y-66597676D01*
X78190476Y-66597676D02*
X78095238Y-66692914D01*
X78095238Y-66692914D02*
X78000000Y-66740533D01*
X83785714Y-93054819D02*
X83785714Y-92054819D01*
X83785714Y-92054819D02*
X84023809Y-92054819D01*
X84023809Y-92054819D02*
X84166666Y-92102438D01*
X84166666Y-92102438D02*
X84261904Y-92197676D01*
X84261904Y-92197676D02*
X84309523Y-92292914D01*
X84309523Y-92292914D02*
X84357142Y-92483390D01*
X84357142Y-92483390D02*
X84357142Y-92626247D01*
X84357142Y-92626247D02*
X84309523Y-92816723D01*
X84309523Y-92816723D02*
X84261904Y-92911961D01*
X84261904Y-92911961D02*
X84166666Y-93007200D01*
X84166666Y-93007200D02*
X84023809Y-93054819D01*
X84023809Y-93054819D02*
X83785714Y-93054819D01*
X85309523Y-93054819D02*
X84738095Y-93054819D01*
X85023809Y-93054819D02*
X85023809Y-92054819D01*
X85023809Y-92054819D02*
X84928571Y-92197676D01*
X84928571Y-92197676D02*
X84833333Y-92292914D01*
X84833333Y-92292914D02*
X84738095Y-92340533D01*
X85642857Y-92054819D02*
X86309523Y-92054819D01*
X86309523Y-92054819D02*
X85880952Y-93054819D01*
X47124819Y-65333333D02*
X47839104Y-65333333D01*
X47839104Y-65333333D02*
X47981961Y-65380952D01*
X47981961Y-65380952D02*
X48077200Y-65476190D01*
X48077200Y-65476190D02*
X48124819Y-65619047D01*
X48124819Y-65619047D02*
X48124819Y-65714285D01*
X47124819Y-64952380D02*
X47124819Y-64333333D01*
X47124819Y-64333333D02*
X47505771Y-64666666D01*
X47505771Y-64666666D02*
X47505771Y-64523809D01*
X47505771Y-64523809D02*
X47553390Y-64428571D01*
X47553390Y-64428571D02*
X47601009Y-64380952D01*
X47601009Y-64380952D02*
X47696247Y-64333333D01*
X47696247Y-64333333D02*
X47934342Y-64333333D01*
X47934342Y-64333333D02*
X48029580Y-64380952D01*
X48029580Y-64380952D02*
X48077200Y-64428571D01*
X48077200Y-64428571D02*
X48124819Y-64523809D01*
X48124819Y-64523809D02*
X48124819Y-64809523D01*
X48124819Y-64809523D02*
X48077200Y-64904761D01*
X48077200Y-64904761D02*
X48029580Y-64952380D01*
X102785714Y-80454819D02*
X102785714Y-79454819D01*
X102785714Y-79454819D02*
X103023809Y-79454819D01*
X103023809Y-79454819D02*
X103166666Y-79502438D01*
X103166666Y-79502438D02*
X103261904Y-79597676D01*
X103261904Y-79597676D02*
X103309523Y-79692914D01*
X103309523Y-79692914D02*
X103357142Y-79883390D01*
X103357142Y-79883390D02*
X103357142Y-80026247D01*
X103357142Y-80026247D02*
X103309523Y-80216723D01*
X103309523Y-80216723D02*
X103261904Y-80311961D01*
X103261904Y-80311961D02*
X103166666Y-80407200D01*
X103166666Y-80407200D02*
X103023809Y-80454819D01*
X103023809Y-80454819D02*
X102785714Y-80454819D01*
X104309523Y-80454819D02*
X103738095Y-80454819D01*
X104023809Y-80454819D02*
X104023809Y-79454819D01*
X104023809Y-79454819D02*
X103928571Y-79597676D01*
X103928571Y-79597676D02*
X103833333Y-79692914D01*
X103833333Y-79692914D02*
X103738095Y-79740533D01*
X104880952Y-79883390D02*
X104785714Y-79835771D01*
X104785714Y-79835771D02*
X104738095Y-79788152D01*
X104738095Y-79788152D02*
X104690476Y-79692914D01*
X104690476Y-79692914D02*
X104690476Y-79645295D01*
X104690476Y-79645295D02*
X104738095Y-79550057D01*
X104738095Y-79550057D02*
X104785714Y-79502438D01*
X104785714Y-79502438D02*
X104880952Y-79454819D01*
X104880952Y-79454819D02*
X105071428Y-79454819D01*
X105071428Y-79454819D02*
X105166666Y-79502438D01*
X105166666Y-79502438D02*
X105214285Y-79550057D01*
X105214285Y-79550057D02*
X105261904Y-79645295D01*
X105261904Y-79645295D02*
X105261904Y-79692914D01*
X105261904Y-79692914D02*
X105214285Y-79788152D01*
X105214285Y-79788152D02*
X105166666Y-79835771D01*
X105166666Y-79835771D02*
X105071428Y-79883390D01*
X105071428Y-79883390D02*
X104880952Y-79883390D01*
X104880952Y-79883390D02*
X104785714Y-79931009D01*
X104785714Y-79931009D02*
X104738095Y-79978628D01*
X104738095Y-79978628D02*
X104690476Y-80073866D01*
X104690476Y-80073866D02*
X104690476Y-80264342D01*
X104690476Y-80264342D02*
X104738095Y-80359580D01*
X104738095Y-80359580D02*
X104785714Y-80407200D01*
X104785714Y-80407200D02*
X104880952Y-80454819D01*
X104880952Y-80454819D02*
X105071428Y-80454819D01*
X105071428Y-80454819D02*
X105166666Y-80407200D01*
X105166666Y-80407200D02*
X105214285Y-80359580D01*
X105214285Y-80359580D02*
X105261904Y-80264342D01*
X105261904Y-80264342D02*
X105261904Y-80073866D01*
X105261904Y-80073866D02*
X105214285Y-79978628D01*
X105214285Y-79978628D02*
X105166666Y-79931009D01*
X105166666Y-79931009D02*
X105071428Y-79883390D01*
X153785714Y-78054819D02*
X153785714Y-77054819D01*
X153785714Y-77054819D02*
X154023809Y-77054819D01*
X154023809Y-77054819D02*
X154166666Y-77102438D01*
X154166666Y-77102438D02*
X154261904Y-77197676D01*
X154261904Y-77197676D02*
X154309523Y-77292914D01*
X154309523Y-77292914D02*
X154357142Y-77483390D01*
X154357142Y-77483390D02*
X154357142Y-77626247D01*
X154357142Y-77626247D02*
X154309523Y-77816723D01*
X154309523Y-77816723D02*
X154261904Y-77911961D01*
X154261904Y-77911961D02*
X154166666Y-78007200D01*
X154166666Y-78007200D02*
X154023809Y-78054819D01*
X154023809Y-78054819D02*
X153785714Y-78054819D01*
X154738095Y-77150057D02*
X154785714Y-77102438D01*
X154785714Y-77102438D02*
X154880952Y-77054819D01*
X154880952Y-77054819D02*
X155119047Y-77054819D01*
X155119047Y-77054819D02*
X155214285Y-77102438D01*
X155214285Y-77102438D02*
X155261904Y-77150057D01*
X155261904Y-77150057D02*
X155309523Y-77245295D01*
X155309523Y-77245295D02*
X155309523Y-77340533D01*
X155309523Y-77340533D02*
X155261904Y-77483390D01*
X155261904Y-77483390D02*
X154690476Y-78054819D01*
X154690476Y-78054819D02*
X155309523Y-78054819D01*
X156166666Y-77388152D02*
X156166666Y-78054819D01*
X155928571Y-77007200D02*
X155690476Y-77721485D01*
X155690476Y-77721485D02*
X156309523Y-77721485D01*
X118785714Y-93054819D02*
X118785714Y-92054819D01*
X118785714Y-92054819D02*
X119023809Y-92054819D01*
X119023809Y-92054819D02*
X119166666Y-92102438D01*
X119166666Y-92102438D02*
X119261904Y-92197676D01*
X119261904Y-92197676D02*
X119309523Y-92292914D01*
X119309523Y-92292914D02*
X119357142Y-92483390D01*
X119357142Y-92483390D02*
X119357142Y-92626247D01*
X119357142Y-92626247D02*
X119309523Y-92816723D01*
X119309523Y-92816723D02*
X119261904Y-92911961D01*
X119261904Y-92911961D02*
X119166666Y-93007200D01*
X119166666Y-93007200D02*
X119023809Y-93054819D01*
X119023809Y-93054819D02*
X118785714Y-93054819D01*
X119738095Y-92150057D02*
X119785714Y-92102438D01*
X119785714Y-92102438D02*
X119880952Y-92054819D01*
X119880952Y-92054819D02*
X120119047Y-92054819D01*
X120119047Y-92054819D02*
X120214285Y-92102438D01*
X120214285Y-92102438D02*
X120261904Y-92150057D01*
X120261904Y-92150057D02*
X120309523Y-92245295D01*
X120309523Y-92245295D02*
X120309523Y-92340533D01*
X120309523Y-92340533D02*
X120261904Y-92483390D01*
X120261904Y-92483390D02*
X119690476Y-93054819D01*
X119690476Y-93054819D02*
X120309523Y-93054819D01*
X121261904Y-93054819D02*
X120690476Y-93054819D01*
X120976190Y-93054819D02*
X120976190Y-92054819D01*
X120976190Y-92054819D02*
X120880952Y-92197676D01*
X120880952Y-92197676D02*
X120785714Y-92292914D01*
X120785714Y-92292914D02*
X120690476Y-92340533D01*
X179261905Y-48054819D02*
X179261905Y-47054819D01*
X179261905Y-47054819D02*
X179500000Y-47054819D01*
X179500000Y-47054819D02*
X179642857Y-47102438D01*
X179642857Y-47102438D02*
X179738095Y-47197676D01*
X179738095Y-47197676D02*
X179785714Y-47292914D01*
X179785714Y-47292914D02*
X179833333Y-47483390D01*
X179833333Y-47483390D02*
X179833333Y-47626247D01*
X179833333Y-47626247D02*
X179785714Y-47816723D01*
X179785714Y-47816723D02*
X179738095Y-47911961D01*
X179738095Y-47911961D02*
X179642857Y-48007200D01*
X179642857Y-48007200D02*
X179500000Y-48054819D01*
X179500000Y-48054819D02*
X179261905Y-48054819D01*
X180690476Y-47388152D02*
X180690476Y-48054819D01*
X180452381Y-47007200D02*
X180214286Y-47721485D01*
X180214286Y-47721485D02*
X180833333Y-47721485D01*
X41285714Y-62954819D02*
X41285714Y-61954819D01*
X41285714Y-61954819D02*
X41666666Y-61954819D01*
X41666666Y-61954819D02*
X41761904Y-62002438D01*
X41761904Y-62002438D02*
X41809523Y-62050057D01*
X41809523Y-62050057D02*
X41857142Y-62145295D01*
X41857142Y-62145295D02*
X41857142Y-62288152D01*
X41857142Y-62288152D02*
X41809523Y-62383390D01*
X41809523Y-62383390D02*
X41761904Y-62431009D01*
X41761904Y-62431009D02*
X41666666Y-62478628D01*
X41666666Y-62478628D02*
X41285714Y-62478628D01*
X42190476Y-61954819D02*
X42428571Y-62954819D01*
X42428571Y-62954819D02*
X42619047Y-62240533D01*
X42619047Y-62240533D02*
X42809523Y-62954819D01*
X42809523Y-62954819D02*
X43047619Y-61954819D01*
X43428571Y-62954819D02*
X43428571Y-61954819D01*
X43428571Y-61954819D02*
X43761904Y-62669104D01*
X43761904Y-62669104D02*
X44095237Y-61954819D01*
X44095237Y-61954819D02*
X44095237Y-62954819D01*
X44333333Y-63050057D02*
X45095237Y-63050057D01*
X45904761Y-62954819D02*
X45571428Y-62478628D01*
X45333333Y-62954819D02*
X45333333Y-61954819D01*
X45333333Y-61954819D02*
X45714285Y-61954819D01*
X45714285Y-61954819D02*
X45809523Y-62002438D01*
X45809523Y-62002438D02*
X45857142Y-62050057D01*
X45857142Y-62050057D02*
X45904761Y-62145295D01*
X45904761Y-62145295D02*
X45904761Y-62288152D01*
X45904761Y-62288152D02*
X45857142Y-62383390D01*
X45857142Y-62383390D02*
X45809523Y-62431009D01*
X45809523Y-62431009D02*
X45714285Y-62478628D01*
X45714285Y-62478628D02*
X45333333Y-62478628D01*
X46333333Y-62431009D02*
X46666666Y-62431009D01*
X46809523Y-62954819D02*
X46333333Y-62954819D01*
X46333333Y-62954819D02*
X46333333Y-61954819D01*
X46333333Y-61954819D02*
X46809523Y-61954819D01*
X47238095Y-62954819D02*
X47238095Y-61954819D01*
X47238095Y-61954819D02*
X47476190Y-61954819D01*
X47476190Y-61954819D02*
X47619047Y-62002438D01*
X47619047Y-62002438D02*
X47714285Y-62097676D01*
X47714285Y-62097676D02*
X47761904Y-62192914D01*
X47761904Y-62192914D02*
X47809523Y-62383390D01*
X47809523Y-62383390D02*
X47809523Y-62526247D01*
X47809523Y-62526247D02*
X47761904Y-62716723D01*
X47761904Y-62716723D02*
X47714285Y-62811961D01*
X47714285Y-62811961D02*
X47619047Y-62907200D01*
X47619047Y-62907200D02*
X47476190Y-62954819D01*
X47476190Y-62954819D02*
X47238095Y-62954819D01*
X48761904Y-62954819D02*
X48190476Y-62954819D01*
X48476190Y-62954819D02*
X48476190Y-61954819D01*
X48476190Y-61954819D02*
X48380952Y-62097676D01*
X48380952Y-62097676D02*
X48285714Y-62192914D01*
X48285714Y-62192914D02*
X48190476Y-62240533D01*
X41595238Y-90454819D02*
X41595238Y-89454819D01*
X41595238Y-89454819D02*
X41976190Y-89454819D01*
X41976190Y-89454819D02*
X42071428Y-89502438D01*
X42071428Y-89502438D02*
X42119047Y-89550057D01*
X42119047Y-89550057D02*
X42166666Y-89645295D01*
X42166666Y-89645295D02*
X42166666Y-89788152D01*
X42166666Y-89788152D02*
X42119047Y-89883390D01*
X42119047Y-89883390D02*
X42071428Y-89931009D01*
X42071428Y-89931009D02*
X41976190Y-89978628D01*
X41976190Y-89978628D02*
X41595238Y-89978628D01*
X42500000Y-89454819D02*
X42738095Y-90454819D01*
X42738095Y-90454819D02*
X42928571Y-89740533D01*
X42928571Y-89740533D02*
X43119047Y-90454819D01*
X43119047Y-90454819D02*
X43357143Y-89454819D01*
X43738095Y-90454819D02*
X43738095Y-89454819D01*
X43738095Y-89454819D02*
X44071428Y-90169104D01*
X44071428Y-90169104D02*
X44404761Y-89454819D01*
X44404761Y-89454819D02*
X44404761Y-90454819D01*
X44642857Y-90550057D02*
X45404761Y-90550057D01*
X45547619Y-89454819D02*
X45785714Y-90454819D01*
X45785714Y-90454819D02*
X45976190Y-89740533D01*
X45976190Y-89740533D02*
X46166666Y-90454819D01*
X46166666Y-90454819D02*
X46404762Y-89454819D01*
X46690476Y-89454819D02*
X46928571Y-90454819D01*
X46928571Y-90454819D02*
X47119047Y-89740533D01*
X47119047Y-89740533D02*
X47309523Y-90454819D01*
X47309523Y-90454819D02*
X47547619Y-89454819D01*
X48452380Y-90454819D02*
X47880952Y-90454819D01*
X48166666Y-90454819D02*
X48166666Y-89454819D01*
X48166666Y-89454819D02*
X48071428Y-89597676D01*
X48071428Y-89597676D02*
X47976190Y-89692914D01*
X47976190Y-89692914D02*
X47880952Y-89740533D01*
X62357142Y-93806819D02*
X61880952Y-93806819D01*
X61880952Y-93806819D02*
X61880952Y-92806819D01*
X62690476Y-93283009D02*
X63023809Y-93283009D01*
X63166666Y-93806819D02*
X62690476Y-93806819D01*
X62690476Y-93806819D02*
X62690476Y-92806819D01*
X62690476Y-92806819D02*
X63166666Y-92806819D01*
X63595238Y-93806819D02*
X63595238Y-92806819D01*
X63595238Y-92806819D02*
X63833333Y-92806819D01*
X63833333Y-92806819D02*
X63976190Y-92854438D01*
X63976190Y-92854438D02*
X64071428Y-92949676D01*
X64071428Y-92949676D02*
X64119047Y-93044914D01*
X64119047Y-93044914D02*
X64166666Y-93235390D01*
X64166666Y-93235390D02*
X64166666Y-93378247D01*
X64166666Y-93378247D02*
X64119047Y-93568723D01*
X64119047Y-93568723D02*
X64071428Y-93663961D01*
X64071428Y-93663961D02*
X63976190Y-93759200D01*
X63976190Y-93759200D02*
X63833333Y-93806819D01*
X63833333Y-93806819D02*
X63595238Y-93806819D01*
X64357143Y-93902057D02*
X65119047Y-93902057D01*
X65261905Y-92806819D02*
X65500000Y-93806819D01*
X65500000Y-93806819D02*
X65690476Y-93092533D01*
X65690476Y-93092533D02*
X65880952Y-93806819D01*
X65880952Y-93806819D02*
X66119048Y-92806819D01*
X66404762Y-92806819D02*
X66642857Y-93806819D01*
X66642857Y-93806819D02*
X66833333Y-93092533D01*
X66833333Y-93092533D02*
X67023809Y-93806819D01*
X67023809Y-93806819D02*
X67261905Y-92806819D01*
X68166666Y-93806819D02*
X67595238Y-93806819D01*
X67880952Y-93806819D02*
X67880952Y-92806819D01*
X67880952Y-92806819D02*
X67785714Y-92949676D01*
X67785714Y-92949676D02*
X67690476Y-93044914D01*
X67690476Y-93044914D02*
X67595238Y-93092533D01*
X172785714Y-55454819D02*
X172785714Y-54454819D01*
X172785714Y-54454819D02*
X173023809Y-54454819D01*
X173023809Y-54454819D02*
X173166666Y-54502438D01*
X173166666Y-54502438D02*
X173261904Y-54597676D01*
X173261904Y-54597676D02*
X173309523Y-54692914D01*
X173309523Y-54692914D02*
X173357142Y-54883390D01*
X173357142Y-54883390D02*
X173357142Y-55026247D01*
X173357142Y-55026247D02*
X173309523Y-55216723D01*
X173309523Y-55216723D02*
X173261904Y-55311961D01*
X173261904Y-55311961D02*
X173166666Y-55407200D01*
X173166666Y-55407200D02*
X173023809Y-55454819D01*
X173023809Y-55454819D02*
X172785714Y-55454819D01*
X173690476Y-54454819D02*
X174309523Y-54454819D01*
X174309523Y-54454819D02*
X173976190Y-54835771D01*
X173976190Y-54835771D02*
X174119047Y-54835771D01*
X174119047Y-54835771D02*
X174214285Y-54883390D01*
X174214285Y-54883390D02*
X174261904Y-54931009D01*
X174261904Y-54931009D02*
X174309523Y-55026247D01*
X174309523Y-55026247D02*
X174309523Y-55264342D01*
X174309523Y-55264342D02*
X174261904Y-55359580D01*
X174261904Y-55359580D02*
X174214285Y-55407200D01*
X174214285Y-55407200D02*
X174119047Y-55454819D01*
X174119047Y-55454819D02*
X173833333Y-55454819D01*
X173833333Y-55454819D02*
X173738095Y-55407200D01*
X173738095Y-55407200D02*
X173690476Y-55359580D01*
X174880952Y-54883390D02*
X174785714Y-54835771D01*
X174785714Y-54835771D02*
X174738095Y-54788152D01*
X174738095Y-54788152D02*
X174690476Y-54692914D01*
X174690476Y-54692914D02*
X174690476Y-54645295D01*
X174690476Y-54645295D02*
X174738095Y-54550057D01*
X174738095Y-54550057D02*
X174785714Y-54502438D01*
X174785714Y-54502438D02*
X174880952Y-54454819D01*
X174880952Y-54454819D02*
X175071428Y-54454819D01*
X175071428Y-54454819D02*
X175166666Y-54502438D01*
X175166666Y-54502438D02*
X175214285Y-54550057D01*
X175214285Y-54550057D02*
X175261904Y-54645295D01*
X175261904Y-54645295D02*
X175261904Y-54692914D01*
X175261904Y-54692914D02*
X175214285Y-54788152D01*
X175214285Y-54788152D02*
X175166666Y-54835771D01*
X175166666Y-54835771D02*
X175071428Y-54883390D01*
X175071428Y-54883390D02*
X174880952Y-54883390D01*
X174880952Y-54883390D02*
X174785714Y-54931009D01*
X174785714Y-54931009D02*
X174738095Y-54978628D01*
X174738095Y-54978628D02*
X174690476Y-55073866D01*
X174690476Y-55073866D02*
X174690476Y-55264342D01*
X174690476Y-55264342D02*
X174738095Y-55359580D01*
X174738095Y-55359580D02*
X174785714Y-55407200D01*
X174785714Y-55407200D02*
X174880952Y-55454819D01*
X174880952Y-55454819D02*
X175071428Y-55454819D01*
X175071428Y-55454819D02*
X175166666Y-55407200D01*
X175166666Y-55407200D02*
X175214285Y-55359580D01*
X175214285Y-55359580D02*
X175261904Y-55264342D01*
X175261904Y-55264342D02*
X175261904Y-55073866D01*
X175261904Y-55073866D02*
X175214285Y-54978628D01*
X175214285Y-54978628D02*
X175166666Y-54931009D01*
X175166666Y-54931009D02*
X175071428Y-54883390D01*
X153785714Y-93054819D02*
X153785714Y-92054819D01*
X153785714Y-92054819D02*
X154023809Y-92054819D01*
X154023809Y-92054819D02*
X154166666Y-92102438D01*
X154166666Y-92102438D02*
X154261904Y-92197676D01*
X154261904Y-92197676D02*
X154309523Y-92292914D01*
X154309523Y-92292914D02*
X154357142Y-92483390D01*
X154357142Y-92483390D02*
X154357142Y-92626247D01*
X154357142Y-92626247D02*
X154309523Y-92816723D01*
X154309523Y-92816723D02*
X154261904Y-92911961D01*
X154261904Y-92911961D02*
X154166666Y-93007200D01*
X154166666Y-93007200D02*
X154023809Y-93054819D01*
X154023809Y-93054819D02*
X153785714Y-93054819D01*
X154738095Y-92150057D02*
X154785714Y-92102438D01*
X154785714Y-92102438D02*
X154880952Y-92054819D01*
X154880952Y-92054819D02*
X155119047Y-92054819D01*
X155119047Y-92054819D02*
X155214285Y-92102438D01*
X155214285Y-92102438D02*
X155261904Y-92150057D01*
X155261904Y-92150057D02*
X155309523Y-92245295D01*
X155309523Y-92245295D02*
X155309523Y-92340533D01*
X155309523Y-92340533D02*
X155261904Y-92483390D01*
X155261904Y-92483390D02*
X154690476Y-93054819D01*
X154690476Y-93054819D02*
X155309523Y-93054819D01*
X156214285Y-92054819D02*
X155738095Y-92054819D01*
X155738095Y-92054819D02*
X155690476Y-92531009D01*
X155690476Y-92531009D02*
X155738095Y-92483390D01*
X155738095Y-92483390D02*
X155833333Y-92435771D01*
X155833333Y-92435771D02*
X156071428Y-92435771D01*
X156071428Y-92435771D02*
X156166666Y-92483390D01*
X156166666Y-92483390D02*
X156214285Y-92531009D01*
X156214285Y-92531009D02*
X156261904Y-92626247D01*
X156261904Y-92626247D02*
X156261904Y-92864342D01*
X156261904Y-92864342D02*
X156214285Y-92959580D01*
X156214285Y-92959580D02*
X156166666Y-93007200D01*
X156166666Y-93007200D02*
X156071428Y-93054819D01*
X156071428Y-93054819D02*
X155833333Y-93054819D01*
X155833333Y-93054819D02*
X155738095Y-93007200D01*
X155738095Y-93007200D02*
X155690476Y-92959580D01*
X83785714Y-53054819D02*
X83785714Y-52054819D01*
X83785714Y-52054819D02*
X84023809Y-52054819D01*
X84023809Y-52054819D02*
X84166666Y-52102438D01*
X84166666Y-52102438D02*
X84261904Y-52197676D01*
X84261904Y-52197676D02*
X84309523Y-52292914D01*
X84309523Y-52292914D02*
X84357142Y-52483390D01*
X84357142Y-52483390D02*
X84357142Y-52626247D01*
X84357142Y-52626247D02*
X84309523Y-52816723D01*
X84309523Y-52816723D02*
X84261904Y-52911961D01*
X84261904Y-52911961D02*
X84166666Y-53007200D01*
X84166666Y-53007200D02*
X84023809Y-53054819D01*
X84023809Y-53054819D02*
X83785714Y-53054819D01*
X84738095Y-52150057D02*
X84785714Y-52102438D01*
X84785714Y-52102438D02*
X84880952Y-52054819D01*
X84880952Y-52054819D02*
X85119047Y-52054819D01*
X85119047Y-52054819D02*
X85214285Y-52102438D01*
X85214285Y-52102438D02*
X85261904Y-52150057D01*
X85261904Y-52150057D02*
X85309523Y-52245295D01*
X85309523Y-52245295D02*
X85309523Y-52340533D01*
X85309523Y-52340533D02*
X85261904Y-52483390D01*
X85261904Y-52483390D02*
X84690476Y-53054819D01*
X84690476Y-53054819D02*
X85309523Y-53054819D01*
X85880952Y-52483390D02*
X85785714Y-52435771D01*
X85785714Y-52435771D02*
X85738095Y-52388152D01*
X85738095Y-52388152D02*
X85690476Y-52292914D01*
X85690476Y-52292914D02*
X85690476Y-52245295D01*
X85690476Y-52245295D02*
X85738095Y-52150057D01*
X85738095Y-52150057D02*
X85785714Y-52102438D01*
X85785714Y-52102438D02*
X85880952Y-52054819D01*
X85880952Y-52054819D02*
X86071428Y-52054819D01*
X86071428Y-52054819D02*
X86166666Y-52102438D01*
X86166666Y-52102438D02*
X86214285Y-52150057D01*
X86214285Y-52150057D02*
X86261904Y-52245295D01*
X86261904Y-52245295D02*
X86261904Y-52292914D01*
X86261904Y-52292914D02*
X86214285Y-52388152D01*
X86214285Y-52388152D02*
X86166666Y-52435771D01*
X86166666Y-52435771D02*
X86071428Y-52483390D01*
X86071428Y-52483390D02*
X85880952Y-52483390D01*
X85880952Y-52483390D02*
X85785714Y-52531009D01*
X85785714Y-52531009D02*
X85738095Y-52578628D01*
X85738095Y-52578628D02*
X85690476Y-52673866D01*
X85690476Y-52673866D02*
X85690476Y-52864342D01*
X85690476Y-52864342D02*
X85738095Y-52959580D01*
X85738095Y-52959580D02*
X85785714Y-53007200D01*
X85785714Y-53007200D02*
X85880952Y-53054819D01*
X85880952Y-53054819D02*
X86071428Y-53054819D01*
X86071428Y-53054819D02*
X86166666Y-53007200D01*
X86166666Y-53007200D02*
X86214285Y-52959580D01*
X86214285Y-52959580D02*
X86261904Y-52864342D01*
X86261904Y-52864342D02*
X86261904Y-52673866D01*
X86261904Y-52673866D02*
X86214285Y-52578628D01*
X86214285Y-52578628D02*
X86166666Y-52531009D01*
X86166666Y-52531009D02*
X86071428Y-52483390D01*
X98785714Y-72854819D02*
X98785714Y-71854819D01*
X98785714Y-71854819D02*
X99023809Y-71854819D01*
X99023809Y-71854819D02*
X99166666Y-71902438D01*
X99166666Y-71902438D02*
X99261904Y-71997676D01*
X99261904Y-71997676D02*
X99309523Y-72092914D01*
X99309523Y-72092914D02*
X99357142Y-72283390D01*
X99357142Y-72283390D02*
X99357142Y-72426247D01*
X99357142Y-72426247D02*
X99309523Y-72616723D01*
X99309523Y-72616723D02*
X99261904Y-72711961D01*
X99261904Y-72711961D02*
X99166666Y-72807200D01*
X99166666Y-72807200D02*
X99023809Y-72854819D01*
X99023809Y-72854819D02*
X98785714Y-72854819D01*
X99690476Y-71854819D02*
X100309523Y-71854819D01*
X100309523Y-71854819D02*
X99976190Y-72235771D01*
X99976190Y-72235771D02*
X100119047Y-72235771D01*
X100119047Y-72235771D02*
X100214285Y-72283390D01*
X100214285Y-72283390D02*
X100261904Y-72331009D01*
X100261904Y-72331009D02*
X100309523Y-72426247D01*
X100309523Y-72426247D02*
X100309523Y-72664342D01*
X100309523Y-72664342D02*
X100261904Y-72759580D01*
X100261904Y-72759580D02*
X100214285Y-72807200D01*
X100214285Y-72807200D02*
X100119047Y-72854819D01*
X100119047Y-72854819D02*
X99833333Y-72854819D01*
X99833333Y-72854819D02*
X99738095Y-72807200D01*
X99738095Y-72807200D02*
X99690476Y-72759580D01*
X101261904Y-72854819D02*
X100690476Y-72854819D01*
X100976190Y-72854819D02*
X100976190Y-71854819D01*
X100976190Y-71854819D02*
X100880952Y-71997676D01*
X100880952Y-71997676D02*
X100785714Y-72092914D01*
X100785714Y-72092914D02*
X100690476Y-72140533D01*
X64833333Y-106359580D02*
X64785714Y-106407200D01*
X64785714Y-106407200D02*
X64642857Y-106454819D01*
X64642857Y-106454819D02*
X64547619Y-106454819D01*
X64547619Y-106454819D02*
X64404762Y-106407200D01*
X64404762Y-106407200D02*
X64309524Y-106311961D01*
X64309524Y-106311961D02*
X64261905Y-106216723D01*
X64261905Y-106216723D02*
X64214286Y-106026247D01*
X64214286Y-106026247D02*
X64214286Y-105883390D01*
X64214286Y-105883390D02*
X64261905Y-105692914D01*
X64261905Y-105692914D02*
X64309524Y-105597676D01*
X64309524Y-105597676D02*
X64404762Y-105502438D01*
X64404762Y-105502438D02*
X64547619Y-105454819D01*
X64547619Y-105454819D02*
X64642857Y-105454819D01*
X64642857Y-105454819D02*
X64785714Y-105502438D01*
X64785714Y-105502438D02*
X64833333Y-105550057D01*
X65166667Y-105454819D02*
X65785714Y-105454819D01*
X65785714Y-105454819D02*
X65452381Y-105835771D01*
X65452381Y-105835771D02*
X65595238Y-105835771D01*
X65595238Y-105835771D02*
X65690476Y-105883390D01*
X65690476Y-105883390D02*
X65738095Y-105931009D01*
X65738095Y-105931009D02*
X65785714Y-106026247D01*
X65785714Y-106026247D02*
X65785714Y-106264342D01*
X65785714Y-106264342D02*
X65738095Y-106359580D01*
X65738095Y-106359580D02*
X65690476Y-106407200D01*
X65690476Y-106407200D02*
X65595238Y-106454819D01*
X65595238Y-106454819D02*
X65309524Y-106454819D01*
X65309524Y-106454819D02*
X65214286Y-106407200D01*
X65214286Y-106407200D02*
X65166667Y-106359580D01*
X46601470Y-51210866D02*
X45887185Y-51210866D01*
X45887185Y-51210866D02*
X45744328Y-51163247D01*
X45744328Y-51163247D02*
X45649090Y-51068009D01*
X45649090Y-51068009D02*
X45601470Y-50925152D01*
X45601470Y-50925152D02*
X45601470Y-50829914D01*
X45601470Y-52210866D02*
X45601470Y-51639438D01*
X45601470Y-51925152D02*
X46601470Y-51925152D01*
X46601470Y-51925152D02*
X46458613Y-51829914D01*
X46458613Y-51829914D02*
X46363375Y-51734676D01*
X46363375Y-51734676D02*
X46315756Y-51639438D01*
X98785714Y-57854819D02*
X98785714Y-56854819D01*
X98785714Y-56854819D02*
X99023809Y-56854819D01*
X99023809Y-56854819D02*
X99166666Y-56902438D01*
X99166666Y-56902438D02*
X99261904Y-56997676D01*
X99261904Y-56997676D02*
X99309523Y-57092914D01*
X99309523Y-57092914D02*
X99357142Y-57283390D01*
X99357142Y-57283390D02*
X99357142Y-57426247D01*
X99357142Y-57426247D02*
X99309523Y-57616723D01*
X99309523Y-57616723D02*
X99261904Y-57711961D01*
X99261904Y-57711961D02*
X99166666Y-57807200D01*
X99166666Y-57807200D02*
X99023809Y-57854819D01*
X99023809Y-57854819D02*
X98785714Y-57854819D01*
X99690476Y-56854819D02*
X100309523Y-56854819D01*
X100309523Y-56854819D02*
X99976190Y-57235771D01*
X99976190Y-57235771D02*
X100119047Y-57235771D01*
X100119047Y-57235771D02*
X100214285Y-57283390D01*
X100214285Y-57283390D02*
X100261904Y-57331009D01*
X100261904Y-57331009D02*
X100309523Y-57426247D01*
X100309523Y-57426247D02*
X100309523Y-57664342D01*
X100309523Y-57664342D02*
X100261904Y-57759580D01*
X100261904Y-57759580D02*
X100214285Y-57807200D01*
X100214285Y-57807200D02*
X100119047Y-57854819D01*
X100119047Y-57854819D02*
X99833333Y-57854819D01*
X99833333Y-57854819D02*
X99738095Y-57807200D01*
X99738095Y-57807200D02*
X99690476Y-57759580D01*
X100928571Y-56854819D02*
X101023809Y-56854819D01*
X101023809Y-56854819D02*
X101119047Y-56902438D01*
X101119047Y-56902438D02*
X101166666Y-56950057D01*
X101166666Y-56950057D02*
X101214285Y-57045295D01*
X101214285Y-57045295D02*
X101261904Y-57235771D01*
X101261904Y-57235771D02*
X101261904Y-57473866D01*
X101261904Y-57473866D02*
X101214285Y-57664342D01*
X101214285Y-57664342D02*
X101166666Y-57759580D01*
X101166666Y-57759580D02*
X101119047Y-57807200D01*
X101119047Y-57807200D02*
X101023809Y-57854819D01*
X101023809Y-57854819D02*
X100928571Y-57854819D01*
X100928571Y-57854819D02*
X100833333Y-57807200D01*
X100833333Y-57807200D02*
X100785714Y-57759580D01*
X100785714Y-57759580D02*
X100738095Y-57664342D01*
X100738095Y-57664342D02*
X100690476Y-57473866D01*
X100690476Y-57473866D02*
X100690476Y-57235771D01*
X100690476Y-57235771D02*
X100738095Y-57045295D01*
X100738095Y-57045295D02*
X100785714Y-56950057D01*
X100785714Y-56950057D02*
X100833333Y-56902438D01*
X100833333Y-56902438D02*
X100928571Y-56854819D01*
X153785714Y-68054819D02*
X153785714Y-67054819D01*
X153785714Y-67054819D02*
X154023809Y-67054819D01*
X154023809Y-67054819D02*
X154166666Y-67102438D01*
X154166666Y-67102438D02*
X154261904Y-67197676D01*
X154261904Y-67197676D02*
X154309523Y-67292914D01*
X154309523Y-67292914D02*
X154357142Y-67483390D01*
X154357142Y-67483390D02*
X154357142Y-67626247D01*
X154357142Y-67626247D02*
X154309523Y-67816723D01*
X154309523Y-67816723D02*
X154261904Y-67911961D01*
X154261904Y-67911961D02*
X154166666Y-68007200D01*
X154166666Y-68007200D02*
X154023809Y-68054819D01*
X154023809Y-68054819D02*
X153785714Y-68054819D01*
X154690476Y-67054819D02*
X155309523Y-67054819D01*
X155309523Y-67054819D02*
X154976190Y-67435771D01*
X154976190Y-67435771D02*
X155119047Y-67435771D01*
X155119047Y-67435771D02*
X155214285Y-67483390D01*
X155214285Y-67483390D02*
X155261904Y-67531009D01*
X155261904Y-67531009D02*
X155309523Y-67626247D01*
X155309523Y-67626247D02*
X155309523Y-67864342D01*
X155309523Y-67864342D02*
X155261904Y-67959580D01*
X155261904Y-67959580D02*
X155214285Y-68007200D01*
X155214285Y-68007200D02*
X155119047Y-68054819D01*
X155119047Y-68054819D02*
X154833333Y-68054819D01*
X154833333Y-68054819D02*
X154738095Y-68007200D01*
X154738095Y-68007200D02*
X154690476Y-67959580D01*
X155642857Y-67054819D02*
X156309523Y-67054819D01*
X156309523Y-67054819D02*
X155880952Y-68054819D01*
X144261905Y-73054819D02*
X144261905Y-72054819D01*
X144261905Y-72054819D02*
X144500000Y-72054819D01*
X144500000Y-72054819D02*
X144642857Y-72102438D01*
X144642857Y-72102438D02*
X144738095Y-72197676D01*
X144738095Y-72197676D02*
X144785714Y-72292914D01*
X144785714Y-72292914D02*
X144833333Y-72483390D01*
X144833333Y-72483390D02*
X144833333Y-72626247D01*
X144833333Y-72626247D02*
X144785714Y-72816723D01*
X144785714Y-72816723D02*
X144738095Y-72911961D01*
X144738095Y-72911961D02*
X144642857Y-73007200D01*
X144642857Y-73007200D02*
X144500000Y-73054819D01*
X144500000Y-73054819D02*
X144261905Y-73054819D01*
X145166667Y-72054819D02*
X145833333Y-72054819D01*
X145833333Y-72054819D02*
X145404762Y-73054819D01*
X67738095Y-70454819D02*
X67738095Y-71264342D01*
X67738095Y-71264342D02*
X67785714Y-71359580D01*
X67785714Y-71359580D02*
X67833333Y-71407200D01*
X67833333Y-71407200D02*
X67928571Y-71454819D01*
X67928571Y-71454819D02*
X68119047Y-71454819D01*
X68119047Y-71454819D02*
X68214285Y-71407200D01*
X68214285Y-71407200D02*
X68261904Y-71359580D01*
X68261904Y-71359580D02*
X68309523Y-71264342D01*
X68309523Y-71264342D02*
X68309523Y-70454819D01*
X69309523Y-71454819D02*
X68738095Y-71454819D01*
X69023809Y-71454819D02*
X69023809Y-70454819D01*
X69023809Y-70454819D02*
X68928571Y-70597676D01*
X68928571Y-70597676D02*
X68833333Y-70692914D01*
X68833333Y-70692914D02*
X68738095Y-70740533D01*
X67738095Y-100954819D02*
X67738095Y-101764342D01*
X67738095Y-101764342D02*
X67785714Y-101859580D01*
X67785714Y-101859580D02*
X67833333Y-101907200D01*
X67833333Y-101907200D02*
X67928571Y-101954819D01*
X67928571Y-101954819D02*
X68119047Y-101954819D01*
X68119047Y-101954819D02*
X68214285Y-101907200D01*
X68214285Y-101907200D02*
X68261904Y-101859580D01*
X68261904Y-101859580D02*
X68309523Y-101764342D01*
X68309523Y-101764342D02*
X68309523Y-100954819D01*
X68690476Y-100954819D02*
X69309523Y-100954819D01*
X69309523Y-100954819D02*
X68976190Y-101335771D01*
X68976190Y-101335771D02*
X69119047Y-101335771D01*
X69119047Y-101335771D02*
X69214285Y-101383390D01*
X69214285Y-101383390D02*
X69261904Y-101431009D01*
X69261904Y-101431009D02*
X69309523Y-101526247D01*
X69309523Y-101526247D02*
X69309523Y-101764342D01*
X69309523Y-101764342D02*
X69261904Y-101859580D01*
X69261904Y-101859580D02*
X69214285Y-101907200D01*
X69214285Y-101907200D02*
X69119047Y-101954819D01*
X69119047Y-101954819D02*
X68833333Y-101954819D01*
X68833333Y-101954819D02*
X68738095Y-101907200D01*
X68738095Y-101907200D02*
X68690476Y-101859580D01*
X178785714Y-103454819D02*
X178785714Y-102454819D01*
X178785714Y-102454819D02*
X179023809Y-102454819D01*
X179023809Y-102454819D02*
X179166666Y-102502438D01*
X179166666Y-102502438D02*
X179261904Y-102597676D01*
X179261904Y-102597676D02*
X179309523Y-102692914D01*
X179309523Y-102692914D02*
X179357142Y-102883390D01*
X179357142Y-102883390D02*
X179357142Y-103026247D01*
X179357142Y-103026247D02*
X179309523Y-103216723D01*
X179309523Y-103216723D02*
X179261904Y-103311961D01*
X179261904Y-103311961D02*
X179166666Y-103407200D01*
X179166666Y-103407200D02*
X179023809Y-103454819D01*
X179023809Y-103454819D02*
X178785714Y-103454819D01*
X180309523Y-103454819D02*
X179738095Y-103454819D01*
X180023809Y-103454819D02*
X180023809Y-102454819D01*
X180023809Y-102454819D02*
X179928571Y-102597676D01*
X179928571Y-102597676D02*
X179833333Y-102692914D01*
X179833333Y-102692914D02*
X179738095Y-102740533D01*
X180690476Y-102550057D02*
X180738095Y-102502438D01*
X180738095Y-102502438D02*
X180833333Y-102454819D01*
X180833333Y-102454819D02*
X181071428Y-102454819D01*
X181071428Y-102454819D02*
X181166666Y-102502438D01*
X181166666Y-102502438D02*
X181214285Y-102550057D01*
X181214285Y-102550057D02*
X181261904Y-102645295D01*
X181261904Y-102645295D02*
X181261904Y-102740533D01*
X181261904Y-102740533D02*
X181214285Y-102883390D01*
X181214285Y-102883390D02*
X180642857Y-103454819D01*
X180642857Y-103454819D02*
X181261904Y-103454819D01*
X58857142Y-97884819D02*
X58523809Y-97408628D01*
X58285714Y-97884819D02*
X58285714Y-96884819D01*
X58285714Y-96884819D02*
X58666666Y-96884819D01*
X58666666Y-96884819D02*
X58761904Y-96932438D01*
X58761904Y-96932438D02*
X58809523Y-96980057D01*
X58809523Y-96980057D02*
X58857142Y-97075295D01*
X58857142Y-97075295D02*
X58857142Y-97218152D01*
X58857142Y-97218152D02*
X58809523Y-97313390D01*
X58809523Y-97313390D02*
X58761904Y-97361009D01*
X58761904Y-97361009D02*
X58666666Y-97408628D01*
X58666666Y-97408628D02*
X58285714Y-97408628D01*
X59238095Y-96980057D02*
X59285714Y-96932438D01*
X59285714Y-96932438D02*
X59380952Y-96884819D01*
X59380952Y-96884819D02*
X59619047Y-96884819D01*
X59619047Y-96884819D02*
X59714285Y-96932438D01*
X59714285Y-96932438D02*
X59761904Y-96980057D01*
X59761904Y-96980057D02*
X59809523Y-97075295D01*
X59809523Y-97075295D02*
X59809523Y-97170533D01*
X59809523Y-97170533D02*
X59761904Y-97313390D01*
X59761904Y-97313390D02*
X59190476Y-97884819D01*
X59190476Y-97884819D02*
X59809523Y-97884819D01*
X60571428Y-97361009D02*
X60714285Y-97408628D01*
X60714285Y-97408628D02*
X60761904Y-97456247D01*
X60761904Y-97456247D02*
X60809523Y-97551485D01*
X60809523Y-97551485D02*
X60809523Y-97694342D01*
X60809523Y-97694342D02*
X60761904Y-97789580D01*
X60761904Y-97789580D02*
X60714285Y-97837200D01*
X60714285Y-97837200D02*
X60619047Y-97884819D01*
X60619047Y-97884819D02*
X60238095Y-97884819D01*
X60238095Y-97884819D02*
X60238095Y-96884819D01*
X60238095Y-96884819D02*
X60571428Y-96884819D01*
X60571428Y-96884819D02*
X60666666Y-96932438D01*
X60666666Y-96932438D02*
X60714285Y-96980057D01*
X60714285Y-96980057D02*
X60761904Y-97075295D01*
X60761904Y-97075295D02*
X60761904Y-97170533D01*
X60761904Y-97170533D02*
X60714285Y-97265771D01*
X60714285Y-97265771D02*
X60666666Y-97313390D01*
X60666666Y-97313390D02*
X60571428Y-97361009D01*
X60571428Y-97361009D02*
X60238095Y-97361009D01*
X61761904Y-97884819D02*
X61190476Y-97884819D01*
X61476190Y-97884819D02*
X61476190Y-96884819D01*
X61476190Y-96884819D02*
X61380952Y-97027676D01*
X61380952Y-97027676D02*
X61285714Y-97122914D01*
X61285714Y-97122914D02*
X61190476Y-97170533D01*
X118785714Y-78054819D02*
X118785714Y-77054819D01*
X118785714Y-77054819D02*
X119023809Y-77054819D01*
X119023809Y-77054819D02*
X119166666Y-77102438D01*
X119166666Y-77102438D02*
X119261904Y-77197676D01*
X119261904Y-77197676D02*
X119309523Y-77292914D01*
X119309523Y-77292914D02*
X119357142Y-77483390D01*
X119357142Y-77483390D02*
X119357142Y-77626247D01*
X119357142Y-77626247D02*
X119309523Y-77816723D01*
X119309523Y-77816723D02*
X119261904Y-77911961D01*
X119261904Y-77911961D02*
X119166666Y-78007200D01*
X119166666Y-78007200D02*
X119023809Y-78054819D01*
X119023809Y-78054819D02*
X118785714Y-78054819D01*
X119738095Y-77150057D02*
X119785714Y-77102438D01*
X119785714Y-77102438D02*
X119880952Y-77054819D01*
X119880952Y-77054819D02*
X120119047Y-77054819D01*
X120119047Y-77054819D02*
X120214285Y-77102438D01*
X120214285Y-77102438D02*
X120261904Y-77150057D01*
X120261904Y-77150057D02*
X120309523Y-77245295D01*
X120309523Y-77245295D02*
X120309523Y-77340533D01*
X120309523Y-77340533D02*
X120261904Y-77483390D01*
X120261904Y-77483390D02*
X119690476Y-78054819D01*
X119690476Y-78054819D02*
X120309523Y-78054819D01*
X120928571Y-77054819D02*
X121023809Y-77054819D01*
X121023809Y-77054819D02*
X121119047Y-77102438D01*
X121119047Y-77102438D02*
X121166666Y-77150057D01*
X121166666Y-77150057D02*
X121214285Y-77245295D01*
X121214285Y-77245295D02*
X121261904Y-77435771D01*
X121261904Y-77435771D02*
X121261904Y-77673866D01*
X121261904Y-77673866D02*
X121214285Y-77864342D01*
X121214285Y-77864342D02*
X121166666Y-77959580D01*
X121166666Y-77959580D02*
X121119047Y-78007200D01*
X121119047Y-78007200D02*
X121023809Y-78054819D01*
X121023809Y-78054819D02*
X120928571Y-78054819D01*
X120928571Y-78054819D02*
X120833333Y-78007200D01*
X120833333Y-78007200D02*
X120785714Y-77959580D01*
X120785714Y-77959580D02*
X120738095Y-77864342D01*
X120738095Y-77864342D02*
X120690476Y-77673866D01*
X120690476Y-77673866D02*
X120690476Y-77435771D01*
X120690476Y-77435771D02*
X120738095Y-77245295D01*
X120738095Y-77245295D02*
X120785714Y-77150057D01*
X120785714Y-77150057D02*
X120833333Y-77102438D01*
X120833333Y-77102438D02*
X120928571Y-77054819D01*
X168785714Y-72904819D02*
X168785714Y-71904819D01*
X168785714Y-71904819D02*
X169023809Y-71904819D01*
X169023809Y-71904819D02*
X169166666Y-71952438D01*
X169166666Y-71952438D02*
X169261904Y-72047676D01*
X169261904Y-72047676D02*
X169309523Y-72142914D01*
X169309523Y-72142914D02*
X169357142Y-72333390D01*
X169357142Y-72333390D02*
X169357142Y-72476247D01*
X169357142Y-72476247D02*
X169309523Y-72666723D01*
X169309523Y-72666723D02*
X169261904Y-72761961D01*
X169261904Y-72761961D02*
X169166666Y-72857200D01*
X169166666Y-72857200D02*
X169023809Y-72904819D01*
X169023809Y-72904819D02*
X168785714Y-72904819D01*
X169690476Y-71904819D02*
X170309523Y-71904819D01*
X170309523Y-71904819D02*
X169976190Y-72285771D01*
X169976190Y-72285771D02*
X170119047Y-72285771D01*
X170119047Y-72285771D02*
X170214285Y-72333390D01*
X170214285Y-72333390D02*
X170261904Y-72381009D01*
X170261904Y-72381009D02*
X170309523Y-72476247D01*
X170309523Y-72476247D02*
X170309523Y-72714342D01*
X170309523Y-72714342D02*
X170261904Y-72809580D01*
X170261904Y-72809580D02*
X170214285Y-72857200D01*
X170214285Y-72857200D02*
X170119047Y-72904819D01*
X170119047Y-72904819D02*
X169833333Y-72904819D01*
X169833333Y-72904819D02*
X169738095Y-72857200D01*
X169738095Y-72857200D02*
X169690476Y-72809580D01*
X170785714Y-72904819D02*
X170976190Y-72904819D01*
X170976190Y-72904819D02*
X171071428Y-72857200D01*
X171071428Y-72857200D02*
X171119047Y-72809580D01*
X171119047Y-72809580D02*
X171214285Y-72666723D01*
X171214285Y-72666723D02*
X171261904Y-72476247D01*
X171261904Y-72476247D02*
X171261904Y-72095295D01*
X171261904Y-72095295D02*
X171214285Y-72000057D01*
X171214285Y-72000057D02*
X171166666Y-71952438D01*
X171166666Y-71952438D02*
X171071428Y-71904819D01*
X171071428Y-71904819D02*
X170880952Y-71904819D01*
X170880952Y-71904819D02*
X170785714Y-71952438D01*
X170785714Y-71952438D02*
X170738095Y-72000057D01*
X170738095Y-72000057D02*
X170690476Y-72095295D01*
X170690476Y-72095295D02*
X170690476Y-72333390D01*
X170690476Y-72333390D02*
X170738095Y-72428628D01*
X170738095Y-72428628D02*
X170785714Y-72476247D01*
X170785714Y-72476247D02*
X170880952Y-72523866D01*
X170880952Y-72523866D02*
X171071428Y-72523866D01*
X171071428Y-72523866D02*
X171166666Y-72476247D01*
X171166666Y-72476247D02*
X171214285Y-72428628D01*
X171214285Y-72428628D02*
X171261904Y-72333390D01*
X108785714Y-102954819D02*
X108785714Y-101954819D01*
X108785714Y-101954819D02*
X109023809Y-101954819D01*
X109023809Y-101954819D02*
X109166666Y-102002438D01*
X109166666Y-102002438D02*
X109261904Y-102097676D01*
X109261904Y-102097676D02*
X109309523Y-102192914D01*
X109309523Y-102192914D02*
X109357142Y-102383390D01*
X109357142Y-102383390D02*
X109357142Y-102526247D01*
X109357142Y-102526247D02*
X109309523Y-102716723D01*
X109309523Y-102716723D02*
X109261904Y-102811961D01*
X109261904Y-102811961D02*
X109166666Y-102907200D01*
X109166666Y-102907200D02*
X109023809Y-102954819D01*
X109023809Y-102954819D02*
X108785714Y-102954819D01*
X110309523Y-102954819D02*
X109738095Y-102954819D01*
X110023809Y-102954819D02*
X110023809Y-101954819D01*
X110023809Y-101954819D02*
X109928571Y-102097676D01*
X109928571Y-102097676D02*
X109833333Y-102192914D01*
X109833333Y-102192914D02*
X109738095Y-102240533D01*
X110928571Y-101954819D02*
X111023809Y-101954819D01*
X111023809Y-101954819D02*
X111119047Y-102002438D01*
X111119047Y-102002438D02*
X111166666Y-102050057D01*
X111166666Y-102050057D02*
X111214285Y-102145295D01*
X111214285Y-102145295D02*
X111261904Y-102335771D01*
X111261904Y-102335771D02*
X111261904Y-102573866D01*
X111261904Y-102573866D02*
X111214285Y-102764342D01*
X111214285Y-102764342D02*
X111166666Y-102859580D01*
X111166666Y-102859580D02*
X111119047Y-102907200D01*
X111119047Y-102907200D02*
X111023809Y-102954819D01*
X111023809Y-102954819D02*
X110928571Y-102954819D01*
X110928571Y-102954819D02*
X110833333Y-102907200D01*
X110833333Y-102907200D02*
X110785714Y-102859580D01*
X110785714Y-102859580D02*
X110738095Y-102764342D01*
X110738095Y-102764342D02*
X110690476Y-102573866D01*
X110690476Y-102573866D02*
X110690476Y-102335771D01*
X110690476Y-102335771D02*
X110738095Y-102145295D01*
X110738095Y-102145295D02*
X110785714Y-102050057D01*
X110785714Y-102050057D02*
X110833333Y-102002438D01*
X110833333Y-102002438D02*
X110928571Y-101954819D01*
X60024819Y-102071428D02*
X59548628Y-102404761D01*
X60024819Y-102642856D02*
X59024819Y-102642856D01*
X59024819Y-102642856D02*
X59024819Y-102261904D01*
X59024819Y-102261904D02*
X59072438Y-102166666D01*
X59072438Y-102166666D02*
X59120057Y-102119047D01*
X59120057Y-102119047D02*
X59215295Y-102071428D01*
X59215295Y-102071428D02*
X59358152Y-102071428D01*
X59358152Y-102071428D02*
X59453390Y-102119047D01*
X59453390Y-102119047D02*
X59501009Y-102166666D01*
X59501009Y-102166666D02*
X59548628Y-102261904D01*
X59548628Y-102261904D02*
X59548628Y-102642856D01*
X59120057Y-101690475D02*
X59072438Y-101642856D01*
X59072438Y-101642856D02*
X59024819Y-101547618D01*
X59024819Y-101547618D02*
X59024819Y-101309523D01*
X59024819Y-101309523D02*
X59072438Y-101214285D01*
X59072438Y-101214285D02*
X59120057Y-101166666D01*
X59120057Y-101166666D02*
X59215295Y-101119047D01*
X59215295Y-101119047D02*
X59310533Y-101119047D01*
X59310533Y-101119047D02*
X59453390Y-101166666D01*
X59453390Y-101166666D02*
X60024819Y-101738094D01*
X60024819Y-101738094D02*
X60024819Y-101119047D01*
X59739104Y-100738094D02*
X59739104Y-100261904D01*
X60024819Y-100833332D02*
X59024819Y-100499999D01*
X59024819Y-100499999D02*
X60024819Y-100166666D01*
X60024819Y-99309523D02*
X60024819Y-99880951D01*
X60024819Y-99595237D02*
X59024819Y-99595237D01*
X59024819Y-99595237D02*
X59167676Y-99690475D01*
X59167676Y-99690475D02*
X59262914Y-99785713D01*
X59262914Y-99785713D02*
X59310533Y-99880951D01*
X98785714Y-92954819D02*
X98785714Y-91954819D01*
X98785714Y-91954819D02*
X99023809Y-91954819D01*
X99023809Y-91954819D02*
X99166666Y-92002438D01*
X99166666Y-92002438D02*
X99261904Y-92097676D01*
X99261904Y-92097676D02*
X99309523Y-92192914D01*
X99309523Y-92192914D02*
X99357142Y-92383390D01*
X99357142Y-92383390D02*
X99357142Y-92526247D01*
X99357142Y-92526247D02*
X99309523Y-92716723D01*
X99309523Y-92716723D02*
X99261904Y-92811961D01*
X99261904Y-92811961D02*
X99166666Y-92907200D01*
X99166666Y-92907200D02*
X99023809Y-92954819D01*
X99023809Y-92954819D02*
X98785714Y-92954819D01*
X100309523Y-92954819D02*
X99738095Y-92954819D01*
X100023809Y-92954819D02*
X100023809Y-91954819D01*
X100023809Y-91954819D02*
X99928571Y-92097676D01*
X99928571Y-92097676D02*
X99833333Y-92192914D01*
X99833333Y-92192914D02*
X99738095Y-92240533D01*
X100785714Y-92954819D02*
X100976190Y-92954819D01*
X100976190Y-92954819D02*
X101071428Y-92907200D01*
X101071428Y-92907200D02*
X101119047Y-92859580D01*
X101119047Y-92859580D02*
X101214285Y-92716723D01*
X101214285Y-92716723D02*
X101261904Y-92526247D01*
X101261904Y-92526247D02*
X101261904Y-92145295D01*
X101261904Y-92145295D02*
X101214285Y-92050057D01*
X101214285Y-92050057D02*
X101166666Y-92002438D01*
X101166666Y-92002438D02*
X101071428Y-91954819D01*
X101071428Y-91954819D02*
X100880952Y-91954819D01*
X100880952Y-91954819D02*
X100785714Y-92002438D01*
X100785714Y-92002438D02*
X100738095Y-92050057D01*
X100738095Y-92050057D02*
X100690476Y-92145295D01*
X100690476Y-92145295D02*
X100690476Y-92383390D01*
X100690476Y-92383390D02*
X100738095Y-92478628D01*
X100738095Y-92478628D02*
X100785714Y-92526247D01*
X100785714Y-92526247D02*
X100880952Y-92573866D01*
X100880952Y-92573866D02*
X101071428Y-92573866D01*
X101071428Y-92573866D02*
X101166666Y-92526247D01*
X101166666Y-92526247D02*
X101214285Y-92478628D01*
X101214285Y-92478628D02*
X101261904Y-92383390D01*
D12*
%TO.C,J6*%
X58670000Y-48270000D02*
X58670000Y-45670000D01*
X61330000Y-45670000D02*
X58670000Y-45670000D01*
X61330000Y-48270000D02*
X58670000Y-48270000D01*
X61330000Y-48270000D02*
X61330000Y-45670000D01*
X61330000Y-49540000D02*
X61330000Y-50870000D01*
X61330000Y-50870000D02*
X60000000Y-50870000D01*
%TO.C,D2*%
X111400000Y-51600000D02*
X107500000Y-51600000D01*
X111400000Y-48400000D02*
X107500000Y-48400000D01*
X107500000Y-48400000D02*
X107500000Y-51600000D01*
%TO.C,D8*%
X181400000Y-76600000D02*
X177500000Y-76600000D01*
X181400000Y-73400000D02*
X177500000Y-73400000D01*
X177500000Y-73400000D02*
X177500000Y-76600000D01*
%TO.C,D6*%
X111400000Y-76600000D02*
X107500000Y-76600000D01*
X111400000Y-73400000D02*
X107500000Y-73400000D01*
X107500000Y-73400000D02*
X107500000Y-76600000D01*
%TO.C,D15*%
X51840000Y-84077500D02*
X51510000Y-83837500D01*
X51840000Y-83597500D01*
X51840000Y-84077500D01*
G36*
X51840000Y-84077500D02*
G01*
X51510000Y-83837500D01*
X51840000Y-83597500D01*
X51840000Y-84077500D01*
G37*
X51560000Y-85000000D02*
X51560000Y-85650000D01*
X51560000Y-85000000D02*
X51560000Y-84350000D01*
X48440000Y-85000000D02*
X48440000Y-85650000D01*
X48440000Y-85000000D02*
X48440000Y-84350000D01*
%TO.C,D16*%
X86400000Y-81600000D02*
X82500000Y-81600000D01*
X86400000Y-78400000D02*
X82500000Y-78400000D01*
X82500000Y-78400000D02*
X82500000Y-81600000D01*
%TO.C,R3A1*%
X60237258Y-87522500D02*
X59762742Y-87522500D01*
X60237258Y-86477500D02*
X59762742Y-86477500D01*
%TO.C,D36*%
X156400000Y-56600000D02*
X152500000Y-56600000D01*
X156400000Y-53400000D02*
X152500000Y-53400000D01*
X152500000Y-53400000D02*
X152500000Y-56600000D01*
%TO.C,D1*%
X76400000Y-51600000D02*
X72500000Y-51600000D01*
X76400000Y-48400000D02*
X72500000Y-48400000D01*
X72500000Y-48400000D02*
X72500000Y-51600000D01*
%TO.C,D14*%
X56890000Y-96015000D02*
X56560000Y-95775000D01*
X56890000Y-95535000D01*
X56890000Y-96015000D01*
G36*
X56890000Y-96015000D02*
G01*
X56560000Y-95775000D01*
X56890000Y-95535000D01*
X56890000Y-96015000D01*
G37*
X56610000Y-96937500D02*
X56610000Y-97587500D01*
X56610000Y-96937500D02*
X56610000Y-96287500D01*
X53490000Y-96937500D02*
X53490000Y-97587500D01*
X53490000Y-96937500D02*
X53490000Y-96287500D01*
D13*
%TO.C,U2*%
X65977900Y-83323600D02*
X64022100Y-83323600D01*
X64022100Y-86676400D02*
X65977900Y-86676400D01*
D12*
%TO.C,GND1*%
X60450000Y-65000000D02*
G75*
G02*
X58550000Y-65000000I-950000J0D01*
G01*
X58550000Y-65000000D02*
G75*
G02*
X60450000Y-65000000I950000J0D01*
G01*
%TO.C,D3*%
X146400000Y-51600000D02*
X142500000Y-51600000D01*
X146400000Y-48400000D02*
X142500000Y-48400000D01*
X142500000Y-48400000D02*
X142500000Y-51600000D01*
%TO.C,D27*%
X172500000Y-96600000D02*
X172500000Y-93400000D01*
X168600000Y-96600000D02*
X172500000Y-96600000D01*
X168600000Y-93400000D02*
X172500000Y-93400000D01*
%TO.C,D5*%
X76400000Y-76600000D02*
X72500000Y-76600000D01*
X76400000Y-73400000D02*
X72500000Y-73400000D01*
X72500000Y-73400000D02*
X72500000Y-76600000D01*
%TO.C,D13*%
X51840000Y-69077500D02*
X51510000Y-68837500D01*
X51840000Y-68597500D01*
X51840000Y-69077500D01*
G36*
X51840000Y-69077500D02*
G01*
X51510000Y-68837500D01*
X51840000Y-68597500D01*
X51840000Y-69077500D01*
G37*
X51560000Y-70000000D02*
X51560000Y-70650000D01*
X51560000Y-70000000D02*
X51560000Y-69350000D01*
X48440000Y-70000000D02*
X48440000Y-70650000D01*
X48440000Y-70000000D02*
X48440000Y-69350000D01*
%TO.C,D9*%
X76400000Y-101600000D02*
X72500000Y-101600000D01*
X76400000Y-98400000D02*
X72500000Y-98400000D01*
X72500000Y-98400000D02*
X72500000Y-101600000D01*
%TO.C,D29*%
X86400000Y-71600000D02*
X82500000Y-71600000D01*
X86400000Y-68400000D02*
X82500000Y-68400000D01*
X82500000Y-68400000D02*
X82500000Y-71600000D01*
%TO.C,D33*%
X122500000Y-71600000D02*
X122500000Y-68400000D01*
X118600000Y-71600000D02*
X122500000Y-71600000D01*
X118600000Y-68400000D02*
X122500000Y-68400000D01*
%TO.C,R1B1*%
X55146267Y-72510000D02*
X54853733Y-72510000D01*
X55146267Y-71490000D02*
X54853733Y-71490000D01*
%TO.C,LED_WW2*%
X65950000Y-80000000D02*
G75*
G02*
X64050000Y-80000000I-950000J0D01*
G01*
X64050000Y-80000000D02*
G75*
G02*
X65950000Y-80000000I950000J0D01*
G01*
%TO.C,D26*%
X172500000Y-81600000D02*
X172500000Y-78400000D01*
X168600000Y-81600000D02*
X172500000Y-81600000D01*
X168600000Y-78400000D02*
X172500000Y-78400000D01*
%TO.C,D22*%
X137500000Y-81600000D02*
X137500000Y-78400000D01*
X133600000Y-81600000D02*
X137500000Y-81600000D01*
X133600000Y-78400000D02*
X137500000Y-78400000D01*
%TO.C,+12V1*%
X68450000Y-48500000D02*
G75*
G02*
X66550000Y-48500000I-950000J0D01*
G01*
X66550000Y-48500000D02*
G75*
G02*
X68450000Y-48500000I950000J0D01*
G01*
%TO.C,R1A1*%
X59753562Y-72510000D02*
X59461028Y-72510000D01*
X59753562Y-71490000D02*
X59461028Y-71490000D01*
%TO.C,R3B1*%
X55146267Y-87510000D02*
X54853733Y-87510000D01*
X55146267Y-86490000D02*
X54853733Y-86490000D01*
%TO.C,D34*%
X136400000Y-56600000D02*
X132500000Y-56600000D01*
X136400000Y-53400000D02*
X132500000Y-53400000D01*
X132500000Y-53400000D02*
X132500000Y-56600000D01*
%TO.C,D11*%
X146400000Y-101600000D02*
X142500000Y-101600000D01*
X146400000Y-98400000D02*
X142500000Y-98400000D01*
X142500000Y-98400000D02*
X142500000Y-101600000D01*
%TO.C,PWM_WW2*%
X50950000Y-75000000D02*
G75*
G02*
X49050000Y-75000000I-950000J0D01*
G01*
X49050000Y-75000000D02*
G75*
G02*
X50950000Y-75000000I950000J0D01*
G01*
%TO.C,J2*%
X46330000Y-74420000D02*
X46330000Y-87180000D01*
X43670000Y-87180000D02*
X46330000Y-87180000D01*
X43670000Y-74420000D02*
X46330000Y-74420000D01*
X43670000Y-74420000D02*
X43670000Y-87180000D01*
X43670000Y-73150000D02*
X43670000Y-71820000D01*
X43670000Y-71820000D02*
X45000000Y-71820000D01*
%TO.C,C1*%
X65711252Y-74910000D02*
X64288748Y-74910000D01*
X65711252Y-73090000D02*
X64288748Y-73090000D01*
%TO.C,D32*%
X122500000Y-56600000D02*
X122500000Y-53400000D01*
X118600000Y-56600000D02*
X122500000Y-56600000D01*
X118600000Y-53400000D02*
X122500000Y-53400000D01*
%TO.C,D35*%
X136400000Y-71600000D02*
X132500000Y-71600000D01*
X136400000Y-68400000D02*
X132500000Y-68400000D01*
X132500000Y-68400000D02*
X132500000Y-71600000D01*
%TO.C,J5*%
X56410000Y-81330000D02*
X56410000Y-78670000D01*
X51270000Y-81330000D02*
X56410000Y-81330000D01*
X51270000Y-81330000D02*
X51270000Y-78670000D01*
X51270000Y-78670000D02*
X56410000Y-78670000D01*
X50000000Y-81330000D02*
X48670000Y-81330000D01*
X48670000Y-81330000D02*
X48670000Y-80000000D01*
%TO.C,J4*%
X60410000Y-93330000D02*
X60410000Y-90670000D01*
X55270000Y-93330000D02*
X60410000Y-93330000D01*
X55270000Y-93330000D02*
X55270000Y-90670000D01*
X55270000Y-90670000D02*
X60410000Y-90670000D01*
X54000000Y-93330000D02*
X52670000Y-93330000D01*
X52670000Y-93330000D02*
X52670000Y-92000000D01*
%TO.C,C2*%
X65711252Y-89910000D02*
X64288748Y-89910000D01*
X65711252Y-88090000D02*
X64288748Y-88090000D01*
%TO.C,D23*%
X137500000Y-96600000D02*
X137500000Y-93400000D01*
X133600000Y-96600000D02*
X137500000Y-96600000D01*
X133600000Y-93400000D02*
X137500000Y-93400000D01*
%TO.C,LED_RED1+1*%
X70950000Y-69000000D02*
G75*
G02*
X69050000Y-69000000I-950000J0D01*
G01*
X69050000Y-69000000D02*
G75*
G02*
X70950000Y-69000000I950000J0D01*
G01*
%TO.C,D17*%
X86400000Y-96600000D02*
X82500000Y-96600000D01*
X86400000Y-93400000D02*
X82500000Y-93400000D01*
X82500000Y-93400000D02*
X82500000Y-96600000D01*
%TO.C,J3*%
X56410000Y-66330000D02*
X56410000Y-63670000D01*
X51270000Y-66330000D02*
X56410000Y-66330000D01*
X51270000Y-66330000D02*
X51270000Y-63670000D01*
X51270000Y-63670000D02*
X56410000Y-63670000D01*
X50000000Y-66330000D02*
X48670000Y-66330000D01*
X48670000Y-66330000D02*
X48670000Y-65000000D01*
%TO.C,D18*%
X102500000Y-81600000D02*
X102500000Y-78400000D01*
X98600000Y-81600000D02*
X102500000Y-81600000D01*
X98600000Y-78400000D02*
X102500000Y-78400000D01*
%TO.C,D24*%
X156400000Y-81600000D02*
X152500000Y-81600000D01*
X156400000Y-78400000D02*
X152500000Y-78400000D01*
X152500000Y-78400000D02*
X152500000Y-81600000D01*
%TO.C,D21*%
X121400000Y-96600000D02*
X117500000Y-96600000D01*
X121400000Y-93400000D02*
X117500000Y-93400000D01*
X117500000Y-93400000D02*
X117500000Y-96600000D01*
%TO.C,D4*%
X181400000Y-51600000D02*
X177500000Y-51600000D01*
X181400000Y-48400000D02*
X177500000Y-48400000D01*
X177500000Y-48400000D02*
X177500000Y-51600000D01*
%TO.C,PWM_RED1*%
X45950000Y-65000000D02*
G75*
G02*
X44050000Y-65000000I-950000J0D01*
G01*
X44050000Y-65000000D02*
G75*
G02*
X45950000Y-65000000I950000J0D01*
G01*
%TO.C,PWM_WW1*%
X50950000Y-90000000D02*
G75*
G02*
X49050000Y-90000000I-950000J0D01*
G01*
X49050000Y-90000000D02*
G75*
G02*
X50950000Y-90000000I950000J0D01*
G01*
%TO.C,LED_WW1*%
X65950000Y-95000000D02*
G75*
G02*
X64050000Y-95000000I-950000J0D01*
G01*
X64050000Y-95000000D02*
G75*
G02*
X65950000Y-95000000I950000J0D01*
G01*
%TO.C,D38*%
X172500000Y-56600000D02*
X172500000Y-53400000D01*
X168600000Y-56600000D02*
X172500000Y-56600000D01*
X168600000Y-53400000D02*
X172500000Y-53400000D01*
%TO.C,D25*%
X156400000Y-96600000D02*
X152500000Y-96600000D01*
X156400000Y-93400000D02*
X152500000Y-93400000D01*
X152500000Y-93400000D02*
X152500000Y-96600000D01*
%TO.C,D28*%
X86400000Y-56600000D02*
X82500000Y-56600000D01*
X86400000Y-53400000D02*
X82500000Y-53400000D01*
X82500000Y-53400000D02*
X82500000Y-56600000D01*
%TO.C,D31*%
X102500000Y-71600000D02*
X102500000Y-68400000D01*
X98600000Y-71600000D02*
X102500000Y-71600000D01*
X98600000Y-68400000D02*
X102500000Y-68400000D01*
%TO.C,C3*%
X65711252Y-104910000D02*
X64288748Y-104910000D01*
X65711252Y-103090000D02*
X64288748Y-103090000D01*
D13*
%TO.C,J1*%
X53883290Y-56167000D02*
X49462640Y-56167000D01*
X53883290Y-53527940D02*
X53883290Y-56167000D01*
X53883290Y-46921400D02*
X53883290Y-49560460D01*
X49462640Y-46921400D02*
X53883290Y-46921400D01*
X42649940Y-56167000D02*
X39125890Y-56167000D01*
X39125890Y-56167000D02*
X39125890Y-46921400D01*
X39125890Y-46921400D02*
X42649940Y-46921400D01*
D12*
%TO.C,D30*%
X102500000Y-56600000D02*
X102500000Y-53400000D01*
X98600000Y-56600000D02*
X102500000Y-56600000D01*
X98600000Y-53400000D02*
X102500000Y-53400000D01*
%TO.C,D37*%
X156400000Y-71600000D02*
X152500000Y-71600000D01*
X156400000Y-68400000D02*
X152500000Y-68400000D01*
X152500000Y-68400000D02*
X152500000Y-71600000D01*
%TO.C,D7*%
X146400000Y-76600000D02*
X142500000Y-76600000D01*
X146400000Y-73400000D02*
X142500000Y-73400000D01*
X142500000Y-73400000D02*
X142500000Y-76600000D01*
D13*
%TO.C,U1*%
X65977900Y-68323600D02*
X64022100Y-68323600D01*
X64022100Y-71676400D02*
X65977900Y-71676400D01*
%TO.C,U3*%
X65977900Y-98323600D02*
X64022100Y-98323600D01*
X64022100Y-101676400D02*
X65977900Y-101676400D01*
D12*
%TO.C,D12*%
X181400000Y-101600000D02*
X177500000Y-101600000D01*
X181400000Y-98400000D02*
X177500000Y-98400000D01*
X177500000Y-98400000D02*
X177500000Y-101600000D01*
%TO.C,R2B1*%
X60146267Y-96510000D02*
X59853733Y-96510000D01*
X60146267Y-95490000D02*
X59853733Y-95490000D01*
%TO.C,D20*%
X121400000Y-81600000D02*
X117500000Y-81600000D01*
X121400000Y-78400000D02*
X117500000Y-78400000D01*
X117500000Y-78400000D02*
X117500000Y-81600000D01*
%TO.C,D39*%
X172500000Y-71650000D02*
X172500000Y-68450000D01*
X168600000Y-71650000D02*
X172500000Y-71650000D01*
X168600000Y-68450000D02*
X172500000Y-68450000D01*
%TO.C,D10*%
X111400000Y-101600000D02*
X107500000Y-101600000D01*
X111400000Y-98400000D02*
X107500000Y-98400000D01*
X107500000Y-98400000D02*
X107500000Y-101600000D01*
%TO.C,R2A1*%
X60477500Y-100237258D02*
X60477500Y-99762742D01*
X61522500Y-100237258D02*
X61522500Y-99762742D01*
%TO.C,D19*%
X102500000Y-96600000D02*
X102500000Y-93400000D01*
X98600000Y-96600000D02*
X102500000Y-96600000D01*
X98600000Y-93400000D02*
X102500000Y-93400000D01*
%TD*%
M02*
