%TF.GenerationSoftware,KiCad,Pcbnew,8.0.5*%
%TF.CreationDate,2024-10-10T20:21:21+02:00*%
%TF.ProjectId,Glasbaustein,476c6173-6261-4757-9374-65696e2e6b69,rev?*%
%TF.SameCoordinates,Original*%
%TF.FileFunction,Paste,Top*%
%TF.FilePolarity,Positive*%
%FSLAX46Y46*%
G04 Gerber Fmt 4.6, Leading zero omitted, Abs format (unit mm)*
G04 Created by KiCad (PCBNEW 8.0.5) date 2024-10-10 20:21:21*
%MOMM*%
%LPD*%
G01*
G04 APERTURE LIST*
G04 Aperture macros list*
%AMRoundRect*
0 Rectangle with rounded corners*
0 $1 Rounding radius*
0 $2 $3 $4 $5 $6 $7 $8 $9 X,Y pos of 4 corners*
0 Add a 4 corners polygon primitive as box body*
4,1,4,$2,$3,$4,$5,$6,$7,$8,$9,$2,$3,0*
0 Add four circle primitives for the rounded corners*
1,1,$1+$1,$2,$3*
1,1,$1+$1,$4,$5*
1,1,$1+$1,$6,$7*
1,1,$1+$1,$8,$9*
0 Add four rect primitives between the rounded corners*
20,1,$1+$1,$2,$3,$4,$5,0*
20,1,$1+$1,$4,$5,$6,$7,0*
20,1,$1+$1,$6,$7,$8,$9,0*
20,1,$1+$1,$8,$9,$2,$3,0*%
G04 Aperture macros list end*
%ADD10R,1.550000X2.200000*%
%ADD11R,2.500000X2.200000*%
%ADD12RoundRect,0.150000X-0.150000X0.587500X-0.150000X-0.587500X0.150000X-0.587500X0.150000X0.587500X0*%
%ADD13RoundRect,0.200000X0.200000X0.275000X-0.200000X0.275000X-0.200000X-0.275000X0.200000X-0.275000X0*%
%ADD14R,1.003300X0.558800*%
%ADD15RoundRect,0.237500X0.300000X0.237500X-0.300000X0.237500X-0.300000X-0.237500X0.300000X-0.237500X0*%
%ADD16RoundRect,0.250000X0.412500X0.650000X-0.412500X0.650000X-0.412500X-0.650000X0.412500X-0.650000X0*%
%ADD17R,6.197600X3.911600*%
%ADD18R,4.394200X3.302000*%
%ADD19RoundRect,0.200000X0.275000X-0.200000X0.275000X0.200000X-0.275000X0.200000X-0.275000X-0.200000X0*%
G04 APERTURE END LIST*
D10*
%TO.C,D2*%
X111525000Y-50000000D03*
D11*
X108950000Y-50000000D03*
%TD*%
D10*
%TO.C,D8*%
X181525000Y-75000000D03*
D11*
X178950000Y-75000000D03*
%TD*%
D10*
%TO.C,D6*%
X111525000Y-75000000D03*
D11*
X108950000Y-75000000D03*
%TD*%
D12*
%TO.C,D15*%
X50000000Y-85937500D03*
X49050000Y-84062500D03*
X50950000Y-84062500D03*
%TD*%
D10*
%TO.C,D16*%
X86525000Y-80000000D03*
D11*
X83950000Y-80000000D03*
%TD*%
D13*
%TO.C,R3A1*%
X59175000Y-87000000D03*
X60825000Y-87000000D03*
%TD*%
D10*
%TO.C,D36*%
X156525000Y-55000000D03*
D11*
X153950000Y-55000000D03*
%TD*%
D10*
%TO.C,D1*%
X76525000Y-50000000D03*
D11*
X73950000Y-50000000D03*
%TD*%
D12*
%TO.C,D14*%
X55050000Y-97875000D03*
X54100000Y-96000000D03*
X56000000Y-96000000D03*
%TD*%
D14*
%TO.C,U2*%
X66352550Y-84049999D03*
X66352550Y-85000000D03*
X66352550Y-85950001D03*
X63647450Y-85950001D03*
X63647450Y-85000000D03*
X63647450Y-84049999D03*
%TD*%
D10*
%TO.C,D3*%
X146525000Y-50000000D03*
D11*
X143950000Y-50000000D03*
%TD*%
D10*
%TO.C,D27*%
X168475000Y-95000000D03*
D11*
X171050000Y-95000000D03*
%TD*%
D10*
%TO.C,D5*%
X76525000Y-75000000D03*
D11*
X73950000Y-75000000D03*
%TD*%
D12*
%TO.C,D13*%
X50000000Y-70937500D03*
X49050000Y-69062500D03*
X50950000Y-69062500D03*
%TD*%
D10*
%TO.C,D9*%
X76525000Y-100000000D03*
D11*
X73950000Y-100000000D03*
%TD*%
D10*
%TO.C,D29*%
X86525000Y-70000000D03*
D11*
X83950000Y-70000000D03*
%TD*%
D10*
%TO.C,D33*%
X118475000Y-70000000D03*
D11*
X121050000Y-70000000D03*
%TD*%
D15*
%TO.C,R1B1*%
X54137500Y-72000000D03*
X55862500Y-72000000D03*
%TD*%
D10*
%TO.C,D26*%
X168475000Y-80000000D03*
D11*
X171050000Y-80000000D03*
%TD*%
D10*
%TO.C,D22*%
X133475000Y-80000000D03*
D11*
X136050000Y-80000000D03*
%TD*%
D15*
%TO.C,R1A1*%
X58744795Y-72000000D03*
X60469795Y-72000000D03*
%TD*%
%TO.C,R3B1*%
X54137500Y-87000000D03*
X55862500Y-87000000D03*
%TD*%
D10*
%TO.C,D34*%
X136525000Y-55000000D03*
D11*
X133950000Y-55000000D03*
%TD*%
D10*
%TO.C,D11*%
X146525000Y-100000000D03*
D11*
X143950000Y-100000000D03*
%TD*%
D16*
%TO.C,C1*%
X63437500Y-74000000D03*
X66562500Y-74000000D03*
%TD*%
D10*
%TO.C,D32*%
X118475000Y-55000000D03*
D11*
X121050000Y-55000000D03*
%TD*%
D10*
%TO.C,D35*%
X136525000Y-70000000D03*
D11*
X133950000Y-70000000D03*
%TD*%
D16*
%TO.C,C2*%
X63437500Y-89000000D03*
X66562500Y-89000000D03*
%TD*%
D10*
%TO.C,D23*%
X133475000Y-95000000D03*
D11*
X136050000Y-95000000D03*
%TD*%
D10*
%TO.C,D17*%
X86525000Y-95000000D03*
D11*
X83950000Y-95000000D03*
%TD*%
D10*
%TO.C,D18*%
X98475000Y-80000000D03*
D11*
X101050000Y-80000000D03*
%TD*%
D10*
%TO.C,D24*%
X156525000Y-80000000D03*
D11*
X153950000Y-80000000D03*
%TD*%
D10*
%TO.C,D21*%
X121525000Y-95000000D03*
D11*
X118950000Y-95000000D03*
%TD*%
D10*
%TO.C,D4*%
X181525000Y-50000000D03*
D11*
X178950000Y-50000000D03*
%TD*%
D10*
%TO.C,D38*%
X168475000Y-55000000D03*
D11*
X171050000Y-55000000D03*
%TD*%
D10*
%TO.C,D25*%
X156525000Y-95000000D03*
D11*
X153950000Y-95000000D03*
%TD*%
D10*
%TO.C,D28*%
X86525000Y-55000000D03*
D11*
X83950000Y-55000000D03*
%TD*%
D10*
%TO.C,D31*%
X98475000Y-70000000D03*
D11*
X101050000Y-70000000D03*
%TD*%
D16*
%TO.C,C3*%
X63437500Y-104000000D03*
X66562500Y-104000000D03*
%TD*%
D17*
%TO.C,J1*%
X46056290Y-58000000D03*
X46056290Y-45088400D03*
D18*
X55000000Y-51544200D03*
%TD*%
D10*
%TO.C,D30*%
X98475000Y-55000000D03*
D11*
X101050000Y-55000000D03*
%TD*%
D10*
%TO.C,D37*%
X156525000Y-70000000D03*
D11*
X153950000Y-70000000D03*
%TD*%
D10*
%TO.C,D7*%
X146525000Y-75000000D03*
D11*
X143950000Y-75000000D03*
%TD*%
D14*
%TO.C,U1*%
X66352550Y-69049999D03*
X66352550Y-70000000D03*
X66352550Y-70950001D03*
X63647450Y-70950001D03*
X63647450Y-70000000D03*
X63647450Y-69049999D03*
%TD*%
%TO.C,U3*%
X66352550Y-99049999D03*
X66352550Y-100000000D03*
X66352550Y-100950001D03*
X63647450Y-100950001D03*
X63647450Y-100000000D03*
X63647450Y-99049999D03*
%TD*%
D10*
%TO.C,D12*%
X181525000Y-100000000D03*
D11*
X178950000Y-100000000D03*
%TD*%
D15*
%TO.C,R2B1*%
X59137500Y-96000000D03*
X60862500Y-96000000D03*
%TD*%
D10*
%TO.C,D20*%
X121525000Y-80000000D03*
D11*
X118950000Y-80000000D03*
%TD*%
D10*
%TO.C,D39*%
X168475000Y-70050000D03*
D11*
X171050000Y-70050000D03*
%TD*%
D10*
%TO.C,D10*%
X111525000Y-100000000D03*
D11*
X108950000Y-100000000D03*
%TD*%
D19*
%TO.C,R2A1*%
X61000000Y-99175000D03*
X61000000Y-100825000D03*
%TD*%
D10*
%TO.C,D19*%
X98475000Y-95000000D03*
D11*
X101050000Y-95000000D03*
%TD*%
M02*
