M48
; DRILL file {KiCad 8.0.5} date 2024-10-10T20:21:23+0200
; FORMAT={-:-/ absolute / inch / decimal}
; #@! TF.CreationDate,2024-10-10T20:21:23+02:00
; #@! TF.GenerationSoftware,Kicad,Pcbnew,8.0.5
; #@! TF.FileFunction,Plated,1,2,PTH
FMAT,2
INCH
; #@! TA.AperFunction,Plated,PTH,ViaDrill
T1C0.0118
; #@! TA.AperFunction,Plated,PTH,ComponentDrill
T2C0.0394
%
G90
G05
T1
X1.8132Y-1.7358
X1.8132Y-1.7751
X1.8132Y-2.2835
X1.8132Y-2.3228
X1.8526Y-1.7358
X1.8526Y-1.7751
X1.8526Y-2.2835
X1.8526Y-2.3228
X1.892Y-1.7358
X1.892Y-1.7751
X1.892Y-2.2835
X1.892Y-2.3228
X2.5591Y-3.0709
X2.7146Y-3.8996
X3.0473Y-3.7402
X3.1496Y-2.7559
X4.3898Y-2.0669
X4.3898Y-2.8543
X4.3898Y-3.0906
X4.3898Y-3.8445
X5.3543Y-3.0118
X5.3543Y-3.6417
X6.3976Y-2.7559
X6.3976Y-3.1496
X6.3976Y-3.7402
X6.6339Y-2.0866
X7.1467Y-2.0866
T2
X1.7717Y-2.8799
X1.7717Y-2.9799
X1.7717Y-3.0799
X1.7717Y-3.1799
X1.7717Y-3.2799
X1.7717Y-3.3799
X1.9685Y-2.5591
X1.9685Y-3.1496
X2.0685Y-2.5591
X2.0685Y-3.1496
X2.126Y-3.622
X2.1685Y-2.5591
X2.1685Y-3.1496
X2.226Y-3.622
X2.326Y-3.622
X2.3622Y-1.8504
X2.3622Y-1.9504
M30
